<svg width="24" height="24" viewBox="0 0 24 24" fill="none" xmlns="http://www.w3.org/2000/svg">
    <path d="M8.276 20.776h7.456V8.508H7.203v11.195c0 .593.48 1.073 1.073 1.073z" fill="#44619F"/>
    <path d="M18.108 3 15.73 8.51V20.78h3.653c.593 0 1.073-.48 1.073-1.074V8.51L18.108 3z" fill="#274588"/>
    <path d="M8.82 4.71 7.203 8.508h8.529L17.37 4.71H8.82z" fill="#274588" fill-opacity=".8"/>
    <path d="M18.11 3H9.583l-1.57 2.246.293.679h9.806V3z" fill="#274588"/>
    <path d="M18.11 4.016V20.38h1.275a.674.674 0 0 0 .674-.674V8.595l-1.95-4.58zM17.642 3h-8.56l-1.07 2.246h8.55L17.642 3z" fill="#44619F"/>
    <path d="m5.39 7.255-.605.16 2.57 9.755.604-.159-2.57-9.756z" fill="#F5B21B"/>
    <path d="m8.758 20.763 1.43-.009.206-1.988H8.808l-.05 1.997z" fill="#274588"/>
    <path d="m6.914 18.766.051 2.008 1.793-.011.05-1.997H6.914z" fill="#2754B8"/>
    <path d="m5.328 18.766.255 2.016 1.381-.008-.051-2.008H5.328zM6.754 12.422l-2.207.013.235 2.018h2.023l-.051-2.031zM8.965 12.707l-.05 2.044h1.922l.198-2.056-2.07.012z" fill="#274588"/>
    <path d="m8.915 14.457.05-2.043-2.211.012.05 2.031h2.11z" fill="#2754B8"/>
    <path d="M8.809 18.772h1.586l.445-4.311H8.917l-.108 4.31z" fill="#AFDCFA"/>
    <path d="M6.913 18.772h1.894l.108-4.311h-2.11l.108 4.31z" fill="#C5E9FC"/>
    <path d="M6.804 14.46H4.78l.546 4.312h1.585l-.108-4.311z" fill="#ECF8FE"/>
    <path d="m10.541 10.938-1.72.012v1.038l1.726-.012-.006-1.039z" fill="#AFDCFA"/>
    <path d="m6.848 10.938-1.727.012.006 1.038 1.72-.012v-1.039z" fill="#ECF8FE"/>
    <path d="m6.848 10.938.002 1.071 1.975-.021-.006-1.038-1.971-.012z" fill="#C5E9FC"/>
    <path d="M11.665 11.875 4 11.906l.006.91 7.664-.033-.005-.908z" fill="#AFDCFA"/>
    <path d="m11.667 12.075-7.662.046-.001-.55 7.66-.048.003.552z" fill="#CAEBFC"/>
    <path d="m11 12.781-.038.43-6.32.04-.044-.43 6.401-.04z" fill="#122B63"/>
</svg>
