<svg width="14" height="14" viewBox="0 0 14 14" fill="none" xmlns="http://www.w3.org/2000/svg">
<path d="M7 0C3.136 0 0 3.11771 0 6.95918C0 10.8007 3.136 13.9184 7 13.9184C10.864 13.9184 14 10.8007 14 6.95918C14 3.11771 10.864 0 7 0ZM5.103 9.94468L2.59 7.44633C2.317 7.17492 2.317 6.73649 2.59 6.46508C2.863 6.19367 3.304 6.19367 3.577 6.46508L5.6 8.46933L10.416 3.68141C10.689 3.41 11.13 3.41 11.403 3.68141C11.676 3.95282 11.676 4.39124 11.403 4.66265L6.09 9.94468C5.824 10.2161 5.376 10.2161 5.103 9.94468Z" fill="#1CA65B"/>
</svg>
