<svg width="19" height="21" viewBox="0 0 19 21" fill="none" xmlns="http://www.w3.org/2000/svg">
<path d="M16.4125 5.22222L15.5217 18.0388C15.4848 18.5714 15.2528 19.0699 14.8724 19.4338C14.492 19.7977 13.9916 20 13.4718 20H4.96821C4.44843 20 3.94797 19.7977 3.5676 19.4338C3.18724 19.0699 2.95525 18.5714 2.91834 18.0388L2.0275 5.22222M7.165 9.44444V15.7778M11.275 9.44444V15.7778M12.3025 5.22222V2.05556C12.3025 1.7756 12.1942 1.50712 12.0016 1.30917C11.8089 1.11121 11.5475 1 11.275 1H7.165C6.89249 1 6.63114 1.11121 6.43845 1.30917C6.24575 1.50712 6.1375 1.7756 6.1375 2.05556V5.22222M1 5.22222H17.44" stroke="black" stroke-opacity="0.5" stroke-width="2" stroke-linecap="round" stroke-linejoin="round"/>
</svg>
