<svg width="14" height="13" viewBox="0 0 14 13" fill="none" xmlns="http://www.w3.org/2000/svg">
<path d="M7.45348 0.976481C7.27428 0.590614 6.72571 0.590616 6.54652 0.976482L5.13398 4.01808C5.06113 4.17496 4.91237 4.28304 4.74066 4.30385L1.41143 4.70734C0.98907 4.75853 0.819554 5.28025 1.13116 5.56992L3.58739 7.85323C3.71408 7.97099 3.7709 8.14587 3.73763 8.31561L3.09259 11.6066C3.01076 12.0241 3.45456 12.3465 3.82634 12.1397L6.75691 10.5092C6.90806 10.4252 7.09194 10.4252 7.24309 10.5092L10.1737 12.1397C10.5454 12.3465 10.9892 12.0241 10.9074 11.6066L10.2624 8.31561C10.2291 8.14587 10.2859 7.97099 10.4126 7.85323L12.8688 5.56992C13.1804 5.28025 13.0109 4.75853 12.5886 4.70734L9.25934 4.30385C9.08763 4.28304 8.93887 4.17495 8.86602 4.01808L7.45348 0.976481Z" fill="#FFC100"/>
</svg>
