<svg width="20" height="20" viewBox="0 0 20 20" fill="none" xmlns="http://www.w3.org/2000/svg">
<g clip-path="url(#clip0_7632_119041)">
<path d="M3.325 12.512C4.35 12.512 5.34167 12.3453 6.26667 12.0453C6.55833 11.9453 6.88333 12.0203 7.10833 12.2453L8.41667 13.887C10.775 12.762 12.9833 10.637 14.1583 8.19531L12.5333 6.81198C12.3083 6.57865 12.2417 6.25365 12.3333 5.96198C12.6417 5.03698 12.8 4.04531 12.8 3.02031C12.8 2.57031 13.175 2.19531 13.625 2.19531H16.5083C16.9583 2.19531 17.5 2.39531 17.5 3.02031C17.5 10.762 11.0583 17.1953 3.325 17.1953C2.73333 17.1953 2.5 16.6703 2.5 16.212V13.337C2.5 12.887 2.875 12.512 3.325 12.512Z" fill="#274588"/>
</g>
<defs>
<clipPath id="clip0_7632_119041">
<rect width="20" height="20" fill="white" transform="matrix(-1 0 0 1 20 0)"/>
</clipPath>
</defs>
</svg>
