<svg width="24" height="24" viewBox="0 0 24 24" fill="none" xmlns="http://www.w3.org/2000/svg">
<g opacity="0.4">
<path d="M12 4C16.4112 4 20 7.588 20 12C20 16.4112 16.4112 20 12 20C9.4984 20 7.1864 18.8616 5.6584 16.8784C5.4624 16.6232 5.5096 16.2576 5.7648 16.0624C6.0184 15.8656 6.3832 15.9144 6.58 16.168C7.8864 17.864 9.8616 18.8368 12 18.8368C15.7696 18.8368 18.8368 15.7704 18.8368 12C18.8368 8.2304 15.7696 5.1632 12 5.1632C8.2304 5.1632 5.1632 8.2304 5.1632 12C5.1632 12.3504 5.1896 12.6984 5.2416 13.0392C5.2896 13.356 5.072 13.6528 4.7544 13.7016C4.4352 13.7544 4.14 13.5328 4.092 13.2152C4.0312 12.8168 4 12.408 4 12C4 7.588 7.5888 4 12 4ZM12.0082 14.4367C12.3394 14.4367 12.6082 14.7055 12.6082 15.0367C12.6082 15.3679 12.3394 15.6367 12.0082 15.6367C11.677 15.6367 11.4042 15.3679 11.4042 15.0367C11.4042 14.7055 11.669 14.4367 12.0002 14.4367H12.0082ZM12 8.36328C12.3312 8.36328 12.6 8.63208 12.6 8.96328V12.4993C12.6 12.8305 12.3312 13.0993 12 13.0993C11.6688 13.0993 11.4 12.8305 11.4 12.4993V8.96328C11.4 8.63208 11.6688 8.36328 12 8.36328Z" fill="black"/>
</g>
</svg>
