<svg width="24" height="24" viewBox="0 0 24 24" fill="none" xmlns="http://www.w3.org/2000/svg">
    <path d="M3.62 4h2.253v.934c0 .116.094.211.211.211h.49a.212.212 0 0 0 .212-.211V4h2.252c.169 0 .306.137.306.306V9.11a.306.306 0 0 1-.306.306H3.62a.306.306 0 0 1-.305-.306V4.306c0-.17.137-.306.305-.306zM6.765 20.548a2.484 2.484 0 0 0 2.481-2.48 2.484 2.484 0 0 0-2.48-2.482 2.484 2.484 0 0 0-2.482 2.481 2.484 2.484 0 0 0 2.481 2.481zm0-3.712c.679 0 1.231.553 1.231 1.231 0 .679-.552 1.231-1.23 1.231-.68 0-1.232-.552-1.232-1.23 0-.68.552-1.232 1.231-1.232zM20.519 20.548A2.484 2.484 0 0 0 23 18.068a2.484 2.484 0 0 0-2.481-2.482 2.484 2.484 0 0 0-2.481 2.481 2.484 2.484 0 0 0 2.48 2.481zm0-3.712c.679 0 1.23.553 1.23 1.231 0 .679-.551 1.231-1.23 1.231-.679 0-1.23-.552-1.23-1.23 0-.68.551-1.232 1.23-1.232z" fill="#274588"/>
    <path d="M5.581 13.212v-.68h-1.73a.708.708 0 0 1-.708-.708v-.505c0-.39.317-.708.709-.708h8.668c.391 0 .708.317.708.708v.512a.709.709 0 0 1-.708.709h-.959v2.722h4.802a4.8 4.8 0 0 1 1.353-1.385l-1.889-6.812h-1.745a.709.709 0 0 1 0-1.417h2.48c.089 0 .243.037.318.075.11.054.205.136.274.24l5.027 7.537c.15.22.26.498.177.742-.128.378-.562.513-1.007.382a3.35 3.35 0 0 0-4.322 3.203.708.708 0 0 1-.708.708h-5.5a.709.709 0 0 1-.708-.708 3.35 3.35 0 0 0-3.347-3.347 3.351 3.351 0 0 0-3.347 3.347.709.709 0 0 1-1.417 0 4.773 4.773 0 0 1 3.58-4.615z" fill="#274588"/>
</svg>
