<svg width="245" height="231" viewBox="0 0 245 231" fill="none" xmlns="http://www.w3.org/2000/svg">
<g clip-path="url(#clip0_9308_106805)">
<path d="M134.095 182.312H77.834V225.706H134.095V182.312Z" fill="#EBEBEB"/>
<path d="M120.002 225.396C119.926 225.396 119.861 215.721 119.861 203.794C119.861 191.866 119.926 182.191 120.002 182.191C120.077 182.191 120.142 191.861 120.142 203.794C120.142 215.727 120.077 225.396 120.002 225.396Z" fill="#E0E0E0"/>
<path d="M129.324 215.828H125.014V220.706H129.324V215.828Z" fill="#FAFAFA"/>
<path d="M101.391 182.422H95V191.681H101.391V182.422Z" fill="#E0E0E0"/>
<path d="M101.391 216.312H95V225.571H101.391V216.312Z" fill="#E0E0E0"/>
<path d="M236.182 171.43H165.238V226.146H236.182V171.43Z" fill="#EBEBEB"/>
<path d="M218.41 225.756C218.334 225.756 218.27 213.558 218.27 198.519C218.27 183.48 218.334 171.277 218.41 171.277C218.486 171.277 218.55 183.47 218.55 198.519C218.55 213.569 218.486 225.756 218.41 225.756Z" fill="#E0E0E0"/>
<path d="M230.168 213.684H224.729V219.831H230.168V213.684Z" fill="#FAFAFA"/>
<path d="M194.944 171.57H186.885V183.244H194.944V171.57Z" fill="#E0E0E0"/>
<path d="M194.944 214.305H186.885V225.978H194.944V214.305Z" fill="#E0E0E0"/>
<path d="M31.6205 173.026C34.4943 171.546 37.8705 171.351 41.0577 171.881C42.7701 172.162 44.5582 172.675 45.7196 173.961C46.8864 175.246 47.1079 177.51 45.7682 178.617C44.9741 179.276 43.8613 179.373 42.8295 179.362C40.3338 179.335 37.568 178.893 35.5693 180.394C34.4295 181.253 33.6732 182.674 32.3173 183.095C30.9885 183.506 29.4867 182.722 28.7791 181.523C28.0714 180.324 28.0498 178.822 28.3793 177.466C28.3793 177.466 28.725 174.517 31.6205 173.026V173.026Z" fill="#EBEBEB"/>
<path d="M25.0449 160.327C26.8006 162.834 30.2146 162.002 31.7974 160.473C33.3802 158.944 34.05 156.724 34.655 154.606C36.0433 149.772 37.4478 144.705 36.4161 139.778C36.1081 138.309 35.5571 136.839 34.52 135.748C33.4882 134.657 31.8946 134.009 30.4415 134.392C28.7183 134.846 27.6541 136.531 26.8762 138.136C24.602 142.846 23.4028 148.07 23.3811 153.305C23.3703 155.746 23.662 158.312 25.0395 160.327" fill="#EBEBEB"/>
<path d="M20.2212 163.925C22.1281 161.662 22.49 158.361 21.6419 155.531C20.7938 152.695 18.8761 150.285 16.6667 148.319C14.0792 146.013 11.0325 144.214 7.75888 143.063C6.47322 142.609 5.11192 142.253 3.75603 142.382C2.39474 142.512 1.02805 143.209 0.396021 144.414C-0.538517 146.202 0.358207 148.368 1.33056 150.14C3.04298 153.257 4.99848 156.238 7.18087 159.047C8.93651 161.305 10.9406 163.536 13.6146 164.557C16.2886 165.578 19.0598 165.46 20.4805 163.607" fill="#EBEBEB"/>
<path d="M24.9248 198.153C24.9572 198.153 25.0112 197.748 25.0814 197.013C25.1625 196.181 25.2651 195.144 25.384 193.902C25.5298 192.594 25.7189 191.039 26.0808 189.342C26.4427 187.652 27.0099 185.82 27.7392 183.957C28.4955 182.109 29.4138 180.429 30.4888 179.084C31.5584 177.734 32.7954 176.756 33.9623 176.194C35.1237 175.621 36.1663 175.384 36.8901 175.281C37.6194 175.205 38.0245 175.151 38.0245 175.119C38.0245 175.087 37.6194 175.081 36.8685 175.103C36.1284 175.151 35.0426 175.34 33.8164 175.897C32.5848 176.442 31.2721 177.436 30.1485 178.814C29.0195 180.186 28.0687 181.904 27.3017 183.784C26.5616 185.674 25.9998 187.527 25.6541 189.256C25.3083 190.979 25.1517 192.557 25.049 193.875C24.9518 195.193 24.914 196.262 24.8924 197.002C24.8762 197.742 24.887 198.153 24.914 198.153H24.9248Z" fill="#E0E0E0"/>
<path d="M25.1364 195.76C25.1364 195.76 25.1634 195.577 25.1688 195.231C25.1688 194.831 25.1688 194.334 25.1688 193.719C25.1688 192.406 25.1688 190.51 25.2337 188.165C25.3471 183.476 25.7522 178.431 26.5355 171.311C27.2756 164.618 28.2642 156.834 29.3121 151.772C29.539 150.622 29.7605 149.585 29.9766 148.677C30.1818 147.77 30.3547 146.986 30.5222 146.349C30.668 145.749 30.7815 145.263 30.8733 144.879C30.9489 144.545 30.9813 144.361 30.9651 144.355C30.9489 144.355 30.8841 144.523 30.7815 144.852C30.668 145.231 30.5222 145.711 30.3439 146.3C30.1494 146.927 29.9496 147.71 29.7227 148.612C29.485 149.514 29.2365 150.552 28.988 151.697C27.9508 156.283 26.8596 162.695 26.071 169.826C25.2877 176.956 24.9366 183.449 24.9041 188.149C24.8771 190.499 24.9257 192.4 24.9852 193.713C25.023 194.329 25.0554 194.826 25.077 195.226C25.104 195.571 25.1256 195.75 25.1418 195.75L25.1364 195.76Z" fill="#E0E0E0"/>
<path d="M25.17 183.239C25.2025 183.239 25.1971 182.677 25.1592 181.661C25.0998 180.646 24.9594 179.182 24.6731 177.383C24.3706 175.589 23.9492 173.461 23.2794 171.149C22.9931 170.09 22.3124 167.557 20.6702 163.77C18.5094 158.638 15.5708 154.446 13.0157 151.848C12.416 151.156 11.7462 150.659 11.2168 150.173C10.9413 149.941 10.6982 149.709 10.4497 149.52C10.2012 149.347 9.96895 149.185 9.75287 149.039C8.91017 148.466 8.4402 148.158 8.42399 148.185C8.34836 148.288 10.3093 149.438 12.7834 152.075C15.2467 154.7 18.1043 158.865 20.2489 163.954C21.4427 166.714 22.28 169.172 22.8688 171.262C23.5549 173.553 24.0086 175.66 24.3489 177.437C24.6731 179.214 24.8621 180.667 24.9756 181.672C25.0674 182.677 25.1376 183.239 25.17 183.239V183.239Z" fill="#E0E0E0"/>
<path d="M12.2305 203.426L13.4837 220.615H35.5669L36.8202 203.426H12.2305Z" fill="#EBEBEB"/>
<path d="M39.4592 196.652H10.0996V203.426H39.4592V196.652Z" fill="#EBEBEB"/>
<path d="M10.0996 219.961V221.835H11.4771H38.973V219.961H10.0996Z" fill="#E0E0E0"/>
<path d="M12.8271 224.935L11.4766 221.629H37.9191L36.3417 224.935H12.8271Z" fill="#E0E0E0"/>
<path d="M36.412 209.044C36.412 209.044 36.3795 209.103 36.3093 209.201C36.2229 209.319 36.1148 209.46 35.9798 209.638C35.6665 210.038 35.2343 210.589 34.6941 211.286L34.6347 211.361L34.5807 211.286C33.7704 210.168 32.69 208.671 31.4205 206.916H31.6042C30.6643 208.244 29.6163 209.73 28.4927 211.324L28.3955 211.464L28.2874 211.334C27.1368 209.968 25.8944 208.482 24.5979 206.943H24.8086C24.7437 207.018 24.6735 207.11 24.6033 207.196C23.4581 208.633 22.3507 210.022 21.3027 211.334L21.1947 211.475L21.092 211.329C19.9738 209.746 18.9258 208.261 17.9805 206.926L18.1642 206.937C16.63 208.687 15.3281 210.168 14.3288 211.307L14.2585 211.383L14.2045 211.297C13.6967 210.448 13.297 209.768 13.0053 209.282C12.8811 209.06 12.7784 208.887 12.6974 208.747C12.6272 208.623 12.5947 208.558 12.6056 208.558C12.611 208.558 12.6542 208.612 12.7352 208.731C12.827 208.866 12.9351 209.039 13.0755 209.249C13.3834 209.73 13.8048 210.394 14.3342 211.232L14.2153 211.221C15.1985 210.07 16.4788 208.569 17.9859 206.797L18.0831 206.683L18.1696 206.802C19.1257 208.136 20.1791 209.611 21.3081 211.188H21.0974C22.14 209.865 23.2474 208.477 24.3872 207.04C24.4574 206.953 24.5277 206.867 24.5925 206.786L24.6951 206.656L24.8032 206.786C26.0942 208.331 27.3367 209.816 28.4819 211.183H28.2766C29.411 209.606 30.4698 208.131 31.4205 206.808L31.5124 206.678L31.6042 206.808C32.8467 208.585 33.9054 210.097 34.6995 211.226H34.5861C35.1479 210.546 35.5963 210.011 35.9258 209.617C36.0716 209.449 36.1905 209.314 36.2823 209.201C36.3633 209.109 36.412 209.06 36.4174 209.066L36.412 209.044Z" fill="#F5F5F5"/>
<path d="M37.1295 203.311C37.1295 203.386 31.5979 203.446 24.7698 203.446C17.9418 203.446 12.4102 203.386 12.4102 203.311C12.4102 203.235 17.9418 203.176 24.7698 203.176C31.5979 203.176 37.1295 203.235 37.1295 203.311Z" fill="#F5F5F5"/>
<path d="M192.035 8.38176L187.508 8.40625L187.63 30.9321L192.156 30.9076L192.035 8.38176Z" fill="#E0E0E0"/>
<path d="M160.011 8.45611L148.289 8.51953L148.356 20.9546L160.078 20.8912L160.011 8.45611Z" fill="#EBEBEB"/>
<path d="M171.679 8.3858L159.957 8.44922L160.024 20.8843L171.746 20.8209L171.679 8.3858Z" fill="#F5F5F5"/>
<path d="M148.31 11.9585C156.1 12.0233 163.911 11.9801 171.701 11.8505C171.863 11.8505 171.857 11.602 171.701 11.602C163.911 11.5588 156.1 11.602 148.31 11.7424C148.175 11.7424 148.175 11.9531 148.31 11.9585Z" fill="#E0E0E0"/>
<path d="M162.282 20.6855L140.982 20.8008L141.037 30.9347L162.337 30.8195L162.282 20.6855Z" fill="#EBEBEB"/>
<path d="M183.477 20.5644L162.178 20.6797L162.233 30.8136L183.532 30.6984L183.477 20.5644Z" fill="#F5F5F5"/>
<path d="M140.996 23.6233C155.144 23.7854 169.345 23.6395 183.493 23.4126C183.655 23.4126 183.65 23.1642 183.493 23.1642C169.345 23.0885 155.144 23.0993 140.996 23.4072C140.861 23.4072 140.861 23.6179 140.996 23.6233Z" fill="#E0E0E0"/>
<path d="M215.549 30.9297H133.029V34.5598H215.549V30.9297Z" fill="#E0E0E0"/>
<path d="M149.888 32.6758H146.539V45.0625H149.888V32.6758Z" fill="#E0E0E0"/>
<path d="M199.894 32.6758H196.545V45.0625H199.894V32.6758Z" fill="#E0E0E0"/>
<path d="M196.453 -0.0127737L191.926 0.0117188L192.093 30.9915L196.62 30.967L196.453 -0.0127737Z" fill="#EBEBEB"/>
<path d="M203.527 5.75882L196.494 5.79688L196.63 30.9048L203.663 30.8667L203.527 5.75882Z" fill="#F5F5F5"/>
<path d="M203.483 10.6047C203.483 10.6695 201.905 10.729 199.966 10.729C198.027 10.729 196.449 10.6749 196.449 10.6047C196.449 10.5345 198.021 10.4805 199.966 10.4805C201.911 10.4805 203.483 10.5345 203.483 10.6047Z" fill="#E0E0E0"/>
<path d="M203.483 9.55003C203.483 9.61485 201.905 9.67427 199.966 9.67427C198.027 9.67427 196.449 9.62025 196.449 9.55003C196.449 9.4798 198.021 9.42578 199.966 9.42578C201.911 9.42578 203.483 9.4798 203.483 9.55003Z" fill="#E0E0E0"/>
<path d="M203.483 27.0969C203.483 27.1617 201.905 27.2211 199.966 27.2211C198.027 27.2211 196.449 27.1671 196.449 27.0969C196.449 27.0267 198.021 26.9727 199.966 26.9727C201.911 26.9727 203.483 27.0267 203.483 27.0969Z" fill="#E0E0E0"/>
<path d="M203.483 26.0422C203.483 26.107 201.905 26.1665 199.966 26.1665C198.027 26.1665 196.449 26.1124 196.449 26.0422C196.449 25.972 198.021 25.918 199.966 25.918C201.911 25.918 203.483 25.972 203.483 26.0422Z" fill="#E0E0E0"/>
<path d="M200.081 23.7414C200.016 23.7414 199.957 21.2079 199.957 18.0855C199.957 14.9632 200.011 12.4297 200.081 12.4297C200.152 12.4297 200.206 14.9632 200.206 18.0855C200.206 21.2079 200.152 23.7414 200.081 23.7414Z" fill="#E0E0E0"/>
<path d="M211.211 11.9297H203.557V30.8797H211.211V11.9297Z" fill="#EBEBEB"/>
<path d="M194.126 6.58812C194.845 6.58812 195.428 6.00525 195.428 5.28625C195.428 4.56724 194.845 3.98438 194.126 3.98438C193.407 3.98438 192.824 4.56724 192.824 5.28625C192.824 6.00525 193.407 6.58812 194.126 6.58812Z" fill="#E0E0E0"/>
<path d="M194.524 8.86328H193.719V27.2947H194.524V8.86328Z" fill="#E0E0E0"/>
<path d="M238.622 225.847C238.622 225.923 186.703 225.988 122.669 225.988C58.634 225.988 6.70508 225.923 6.70508 225.847C6.70508 225.772 58.6124 225.707 122.669 225.707C186.725 225.707 238.622 225.772 238.622 225.847Z" fill="#263238"/>
<path d="M68.215 27.5977C70.7485 30.6768 72.1585 34.6634 72.1152 38.65C72.0882 40.9297 71.6723 43.4416 72.9958 45.2944C74.0005 46.699 75.8372 47.4066 76.6529 48.93C77.636 50.7612 76.7987 53.0787 77.4037 55.0666C78.2627 57.8864 81.5632 59.0694 83.5242 61.268C85.2258 63.1803 85.8524 65.9731 85.1664 68.4364C84.4803 70.8997 82.5194 72.9632 80.0993 73.7951C78.8029 74.2435 77.3173 74.3407 76.0911 73.7303C74.7676 73.0713 73.9465 71.7154 73.2821 70.3919C71.9748 67.7882 60.5389 53.7161 59.8906 50.8801" fill="#263238"/>
<path d="M59.8953 24.2803C55.2172 23.5295 50.7228 26.6302 48.751 30.9409C46.7793 35.2463 46.7253 40.1459 46.5795 44.8834C46.4336 49.6155 46.1041 54.5583 43.684 58.6367C42.1499 61.2243 39.773 63.4877 39.4003 66.475C39.0653 69.1435 40.4482 71.8337 39.9891 74.4861C39.5893 76.7927 37.8283 78.8022 37.8985 81.1467C37.985 83.9665 40.8804 86.0895 43.7002 86.1651C46.52 86.2407 49.1508 84.766 51.3602 83.0104C54.9471 80.1689 57.8533 76.474 59.771 72.3253" fill="#263238"/>
<path d="M52.2 35.4292C51.5842 30.4973 55.1495 25.992 60.1571 25.5113C64.8784 25.0629 69.0703 28.5742 69.778 33.2631C70.3992 37.3739 70.9286 41.5226 70.9124 43.0298C70.853 47.5728 68.1952 49.3447 67.1202 49.8741C66.8717 49.9929 66.1965 50.1333 65.9264 50.1712C65.9264 50.1712 65.8994 50.1874 65.8994 50.209L66.9095 55.4273C67.3687 58.8467 65.4618 61.8934 62.0478 62.3904C58.6229 62.8874 55.949 60.262 55.425 56.8426L52.2 35.4292V35.4292Z" fill="#FFBE9D"/>
<path d="M68.8472 35.2572C68.7716 35.3652 68.172 35.0411 67.4049 35.1545C66.6378 35.2572 66.13 35.7379 66.0328 35.6515C65.9842 35.6137 66.049 35.4354 66.2705 35.2194C66.4866 35.0033 66.8755 34.771 67.3509 34.7062C67.8317 34.6413 68.2584 34.7548 68.5177 34.9006C68.7824 35.0465 68.885 35.2032 68.8472 35.2518V35.2572Z" fill="#263238"/>
<path d="M62.0113 36.9212C61.9357 37.0293 61.336 36.7052 60.569 36.8186C59.8019 36.9212 59.2941 37.402 59.1969 37.3156C59.1482 37.2778 59.2131 37.0995 59.4346 36.8834C59.6506 36.6673 60.0396 36.4351 60.5149 36.3702C60.9957 36.3054 61.4225 36.4189 61.6818 36.5647C61.9465 36.7106 62.0491 36.8672 62.0113 36.9158V36.9212Z" fill="#263238"/>
<path d="M64.8145 41.0411C64.8037 40.9978 65.2683 40.8466 66.03 40.6359C66.2244 40.5873 66.4027 40.5225 66.4189 40.382C66.4459 40.2308 66.3325 40.0363 66.2028 39.8202C65.9489 39.3719 65.6842 38.9019 65.4033 38.4103C64.2851 36.4008 63.4478 34.7316 63.5289 34.6884C63.6099 34.6451 64.5822 36.2387 65.7004 38.2482C65.9705 38.7452 66.2298 39.2206 66.4783 39.6744C66.5864 39.885 66.7484 40.1227 66.6944 40.4306C66.662 40.5873 66.5323 40.7115 66.4135 40.7656C66.2947 40.825 66.1812 40.8412 66.0894 40.8628C65.3169 41.0194 64.8307 41.0951 64.8253 41.0465L64.8145 41.0411Z" fill="#263238"/>
<path d="M65.8938 50.1796C65.8938 50.1796 62.9606 50.8549 58.9199 49.1641C58.9199 49.1641 60.6647 52.9184 66.1639 51.5841L65.8938 50.1796V50.1796Z" fill="#EB996E"/>
<path d="M61.6206 34.9061C61.5774 35.1276 60.7941 35.1384 59.9082 35.3815C59.0169 35.603 58.3254 35.9757 58.1796 35.8028C58.1147 35.7218 58.212 35.5057 58.4767 35.2626C58.7414 35.0195 59.1735 34.7603 59.7083 34.6198C60.2431 34.4794 60.7509 34.4956 61.0966 34.582C61.4477 34.6684 61.6368 34.8089 61.6206 34.9115V34.9061Z" fill="#263238"/>
<path d="M68.2191 33.5538C68.111 33.7483 67.5546 33.6456 66.9118 33.7267C66.269 33.7861 65.7504 34.013 65.5991 33.8509C65.5343 33.7699 65.5937 33.5808 65.8044 33.381C66.0151 33.1811 66.3824 32.992 66.82 32.938C67.2575 32.8894 67.6627 32.992 67.9112 33.1379C68.1651 33.2837 68.2623 33.4512 68.2137 33.5484L68.2191 33.5538Z" fill="#263238"/>
<path d="M60.3418 37.9166C60.3958 38.2516 60.7199 38.4838 61.071 38.4352C61.4222 38.3866 61.6599 38.0787 61.6058 37.7438C61.5518 37.4088 61.2277 37.1766 60.8766 37.2252C60.5254 37.2738 60.2878 37.5817 60.3364 37.9166H60.3418Z" fill="#263238"/>
<path d="M67.1543 36.4362C67.2083 36.7711 67.5324 37.0034 67.8835 36.9548C68.2347 36.9061 68.4724 36.5982 68.4183 36.2633C68.3643 35.9284 68.0402 35.6961 67.6891 35.7447C67.3379 35.7933 67.1003 36.1012 67.1489 36.4362H67.1543Z" fill="#263238"/>
<path d="M66.0261 42.538C65.5292 42.3922 65.1078 42.6461 64.9025 43.0026C64.7027 43.3591 64.7513 43.8507 65.0376 44.1424C65.3239 44.4341 65.8425 44.4827 66.1612 44.2234C66.3773 44.0452 66.4853 43.7643 66.5123 43.4888C66.5393 43.2349 66.4961 42.9594 66.3395 42.7541C66.1828 42.5488 65.8857 42.4408 65.6534 42.5434" fill="#EB996E"/>
<path d="M69.1785 29.5894C68.8274 27.8824 67.6497 26.4238 66.2182 25.4245C65.0028 24.5764 63.5605 24.02 62.0803 23.9713C60.6002 23.9281 59.0823 24.4251 58.0073 25.4515C57.2132 26.2078 56.808 27.2827 56.7756 28.3793L56.862 27.6231C56.6406 28.2443 56.6406 28.9141 56.8729 29.5246C56.9971 29.8541 57.1484 30.1836 57.2834 30.5131C57.6615 31.4584 58.3962 32.2525 59.3037 32.7117C59.7251 32.9224 60.1843 33.0628 60.6542 33.0412C61.1242 33.0196 61.5942 32.8197 61.8805 32.447C62.2856 31.9122 62.237 31.1775 62.1722 30.5131C62.5719 31.1397 62.9987 31.7934 63.6469 32.1661C64.2951 32.5388 65.2243 32.5226 65.678 31.9338C66.1156 31.3612 65.9427 30.5401 65.6888 29.8649C66.0994 30.4969 66.6936 31.0047 67.3742 31.3234C67.7524 31.4963 68.1953 31.6151 68.5789 31.4476C68.903 31.3072 69.1191 30.9831 69.2055 30.6374C69.2919 30.2916 69.2541 29.9297 69.1785 29.584V29.5894Z" fill="#263238"/>
<path d="M65.2798 30.9975C65.2312 30.9975 65.2366 30.3547 65.0313 29.3608C64.8207 28.383 64.3291 26.9947 63.1677 25.9737C62.595 25.4659 61.936 25.1202 61.2986 24.9636C60.6612 24.8069 60.0507 24.8231 59.5592 24.9204C58.5652 25.1202 58.0844 25.5956 58.0574 25.5416C58.0466 25.5308 58.1492 25.4065 58.3869 25.2337C58.6246 25.0608 59.0027 24.8555 59.5159 24.7259C60.0291 24.6016 60.672 24.5584 61.358 24.7097C62.044 24.8609 62.7517 25.2283 63.3513 25.7577C64.5776 26.838 65.0637 28.3074 65.2258 29.3175C65.3068 29.8307 65.3284 30.2521 65.323 30.5438C65.323 30.8355 65.296 30.9921 65.2798 30.9921V30.9975Z" fill="#455A64"/>
<path d="M115.031 93.9794L94.2604 85.7468C94.2604 85.7468 83.6186 71.7935 83.84 71.5234L76.3691 79.702L87.2271 94.3953L112.384 100.283L124.295 100.381C123.372 95.7998 115.031 93.9794 115.031 93.9794V93.9794Z" fill="#FFBE9D"/>
<path d="M69.7571 54.1786L66.9265 53.082L54.7072 54.6324V56.7932L54.3561 56.8364C54.3561 56.8364 50.5585 57.5278 46.869 59.7426C42.4016 62.4274 40.0788 67.5971 40.9053 72.7451C41.4022 75.8351 42.3638 79.5894 44.2221 81.761C47.7711 85.9097 51.0123 80.7832 51.0123 80.7832C51.0123 80.7832 53.2379 85.8665 53.1137 88.2649C53.0056 90.2799 52.1143 94.4718 51.828 95.7791C51.7794 96.0005 51.9252 96.2112 52.1467 96.2544L77.9248 101.019L78.0491 94.7203L77.228 68.8071L76.0882 58.7433C76.0882 58.7433 76.126 53.9355 69.7463 54.184L69.7571 54.1786Z" fill="#274588"/>
<path d="M75.7051 57.0625L85.5312 71.2642L77.6174 80.9013L75.7051 57.0625Z" fill="#274588"/>
<path d="M77.8121 86.9504C77.8121 86.9504 77.7797 86.6209 77.7743 86.0321C77.7689 85.3946 77.7581 84.5519 77.7419 83.5364C77.6932 81.4296 77.5744 78.5233 77.153 75.3362C76.7479 72.149 76.1267 69.3022 75.6513 67.2495C75.419 66.2609 75.2245 65.4398 75.0787 64.8186C74.9436 64.246 74.8788 63.9273 74.895 63.9219C74.9112 63.9219 75.0139 64.2298 75.1813 64.7916C75.3488 65.3588 75.5757 66.1799 75.8404 67.2009C76.3644 69.2428 77.018 72.095 77.4285 75.2984C77.8499 78.4963 77.9363 81.4188 77.9363 83.531C77.9255 84.5843 77.9093 85.4378 77.8769 86.0321C77.8499 86.6209 77.8229 86.945 77.8067 86.945L77.8121 86.9504Z" fill="#263238"/>
<path d="M53.6278 65.3564C53.6278 65.3996 52.8824 65.3942 51.6831 65.459C50.4893 65.5239 48.8363 65.6859 47.0483 66.0532C45.2602 66.426 43.6829 66.9284 42.5592 67.3497C41.4356 67.7657 40.755 68.0682 40.7388 68.0304C40.728 68.0142 40.89 67.9169 41.1926 67.7603C41.4897 67.6036 41.9326 67.3983 42.489 67.1606C43.6018 66.6907 45.19 66.1505 46.9942 65.7777C48.8039 65.405 50.4731 65.27 51.6777 65.2592C52.2828 65.2538 52.7689 65.2646 53.1039 65.2916C53.4388 65.3132 53.6278 65.3402 53.6224 65.3564H53.6278Z" fill="#FAFAFA"/>
<path d="M76.3933 71.8554C76.3987 71.8933 75.9341 72.0067 75.167 72.1201C74.4 72.239 73.3358 72.3524 72.1582 72.3902C70.9751 72.4281 69.9056 72.3902 69.1331 72.3254C68.3606 72.2606 67.8906 72.1796 67.8906 72.1417C67.8906 72.0985 68.3714 72.1093 69.1385 72.1255C69.9056 72.1417 70.9697 72.1471 72.142 72.1093C73.3142 72.0661 74.373 71.9851 75.14 71.9203C75.9071 71.8554 76.3825 71.8122 76.3879 71.85L76.3933 71.8554Z" fill="#FAFAFA"/>
<path d="M80.9014 65.4336C80.95 65.4876 80.0803 66.3573 78.7946 67.1406C77.509 67.9293 76.3368 68.3074 76.3152 68.2426C76.2827 68.167 77.3847 67.6754 78.6488 66.9029C79.9129 66.1358 80.8474 65.3742 80.9014 65.439V65.4336Z" fill="#FAFAFA"/>
<path d="M76.9294 58.8516C76.978 58.9002 75.8166 59.9428 74.0663 60.6774C72.3215 61.4229 70.7658 61.5309 70.7658 61.4661C70.7495 61.3797 72.2513 61.1528 73.9583 60.4235C75.6707 59.7051 76.8808 58.7867 76.9294 58.857V58.8516Z" fill="#FAFAFA"/>
<path d="M77.4679 82.8438C77.4679 82.8438 77.295 82.9572 76.9547 83.1138C76.6197 83.2705 76.1228 83.4758 75.5015 83.7027C74.2591 84.1618 72.4872 84.6696 70.4831 84.9829C68.479 85.2908 66.6369 85.3341 65.3135 85.2692C64.649 85.2368 64.1142 85.1936 63.7469 85.145C63.3796 85.0964 63.1797 85.0639 63.1797 85.0423C63.1797 84.9937 64.0008 85.064 65.3189 85.0748C66.6369 85.0856 68.4574 85.0099 70.4399 84.7074C72.4224 84.3995 74.1835 83.9241 75.4367 83.519C76.69 83.1138 77.4462 82.8059 77.4679 82.8491V82.8438Z" fill="#FAFAFA"/>
<path d="M77.6682 90.168C77.6682 90.168 77.5926 90.222 77.4359 90.2976C77.2523 90.384 77.0254 90.4921 76.7499 90.6217C76.1557 90.9026 75.2752 91.27 74.1732 91.6805C73.0712 92.0965 71.7369 92.5286 70.2351 92.9392C68.728 93.3389 67.0588 93.7063 65.2815 93.9872C63.5043 94.2573 61.7973 94.4085 60.2415 94.4895C58.6858 94.549 57.2813 94.5436 56.109 94.4841C54.9314 94.4247 53.9861 94.3437 53.3324 94.2573C53.0353 94.214 52.7868 94.1816 52.5816 94.1546C52.4087 94.1276 52.3223 94.1114 52.3223 94.1006C52.3223 94.0898 52.4141 94.0898 52.587 94.1006C52.7922 94.1114 53.0407 94.133 53.3432 94.1492C53.9969 94.2032 54.9476 94.2572 56.1144 94.2897C57.2867 94.3275 58.6804 94.3113 60.2307 94.2356C61.7757 94.1438 63.4719 93.9872 65.2383 93.7171C67.0048 93.4362 68.6686 93.0742 70.1703 92.6961C71.6666 92.3017 73.0009 91.8912 74.1083 91.5023C75.2157 91.1133 76.1017 90.7784 76.7067 90.5299C76.9876 90.4219 77.2199 90.33 77.4089 90.2544C77.571 90.195 77.6574 90.168 77.6628 90.1734L77.6682 90.168Z" fill="#FAFAFA"/>
<path d="M30.2705 205.012L27.3535 218.209L22.0326 227.981C21.649 228.683 21.9407 229.569 22.67 229.904C23.0805 230.093 23.5451 230.071 23.9341 229.844C26.4081 228.413 35.4888 223.108 35.6455 222.131C35.8291 220.996 39.6483 208.415 39.6483 208.415L30.2651 205.012H30.2705Z" fill="#7C7B7B"/>
<g opacity="0.6">
<path d="M22.6719 229.908L35.8688 221.254L35.7338 221.81C35.6149 222.291 35.334 222.718 34.9343 223.004C33.8593 223.777 30.8504 225.856 23.9845 229.865C23.5848 230.097 23.0932 230.113 22.6773 229.913L22.6719 229.908Z" fill="white"/>
</g>
<g opacity="0.6">
<path d="M34.2148 216.347C33.8312 216.493 33.599 216.963 33.734 217.357C33.8637 217.746 34.3444 217.984 34.728 217.844C35.1169 217.703 35.4086 217.147 35.2358 216.774C35.0629 216.401 34.4849 216.153 34.1446 216.38" fill="white"/>
</g>
<path d="M27.0769 224.902C26.9958 224.918 26.8662 224.162 26.1747 223.6C25.4995 223.016 24.7324 223.027 24.7324 222.941C24.7324 222.908 24.9215 222.844 25.2402 222.876C25.5535 222.908 25.9911 223.06 26.3638 223.373C26.7419 223.692 26.9634 224.091 27.0499 224.394C27.1363 224.702 27.1093 224.902 27.0769 224.902V224.902Z" fill="#263238"/>
<path d="M25.7107 226.434C25.6351 226.477 25.3164 225.948 24.6843 225.586C24.0631 225.213 23.4419 225.191 23.4419 225.105C23.4203 225.029 24.1225 224.905 24.8356 225.326C25.5541 225.742 25.7863 226.412 25.7107 226.434V226.434Z" fill="#263238"/>
<path d="M29.3727 223.074C29.2971 223.123 28.8109 222.302 27.8818 221.653C26.9581 220.989 26.0289 220.811 26.0451 220.724C26.0451 220.649 27.0607 220.708 28.0547 221.416C29.054 222.113 29.4484 223.053 29.3781 223.074H29.3727Z" fill="#263238"/>
<path d="M30.5945 219.137C30.5404 219.207 29.8868 218.726 28.9523 218.462C28.0177 218.181 27.2128 218.24 27.2074 218.148C27.1858 218.073 28.0339 217.878 29.0387 218.175C30.0435 218.462 30.6539 219.088 30.5945 219.137V219.137Z" fill="#263238"/>
<path d="M31.549 215.291C31.4896 215.356 30.8684 214.74 29.8582 214.541C28.8535 214.319 28.0378 214.632 28.0108 214.551C27.9945 214.519 28.1782 214.389 28.5239 214.287C28.8697 214.184 29.3774 214.135 29.9176 214.249C30.4578 214.362 30.9062 214.611 31.1817 214.843C31.4572 215.075 31.576 215.264 31.549 215.291V215.291Z" fill="#263238"/>
<path d="M30.0656 213.806C30.0656 213.806 30.0656 213.617 30.1682 213.304C30.2763 212.991 30.4815 212.548 30.8813 212.099C31.0812 211.889 31.308 211.613 31.7186 211.532C31.9239 211.489 32.1832 211.592 32.2966 211.802C32.41 212.008 32.4046 212.234 32.3614 212.445C32.1453 213.277 31.2324 213.904 30.2655 213.796C29.2985 213.666 28.5801 212.92 28.3802 212.11C28.3424 211.905 28.3424 211.662 28.499 211.467C28.6557 211.267 28.942 211.246 29.1203 211.321C29.4984 211.473 29.6875 211.759 29.8765 211.981C30.2385 212.456 30.4275 212.904 30.5248 213.218C30.622 213.531 30.6328 213.715 30.6166 213.72C30.5626 213.742 30.4437 212.996 29.7145 212.11C29.5254 211.899 29.3147 211.646 29.0446 211.548C28.9096 211.5 28.7799 211.527 28.7043 211.624C28.6287 211.716 28.6179 211.889 28.6503 212.051C28.8231 212.715 29.4822 213.396 30.2979 213.493C31.1136 213.596 31.9131 213.039 32.0967 212.375C32.1399 212.213 32.1345 212.04 32.0697 211.921C32.0103 211.808 31.8861 211.748 31.751 211.77C31.4701 211.808 31.2324 212.045 31.0325 212.24C30.2439 213.066 30.1142 213.828 30.0602 213.801L30.0656 213.806Z" fill="#263238"/>
<g opacity="0.3">
<path d="M29.9289 206.443L29.2969 209.468L38.8529 211.057L39.6524 208.415L30.2692 205.012L29.9289 206.443Z" fill="black"/>
</g>
<path d="M72.9786 209.894L72.19 220.439C72.19 220.439 82.6427 224.782 82.6914 226.748L62.1855 225.954L62.7419 209.473L72.9786 209.899V209.894Z" fill="#7C7B7B"/>
<g opacity="0.6">
<path d="M65.8837 219.31C65.4839 219.402 65.1922 219.839 65.2678 220.244C65.3435 220.65 65.7864 220.947 66.1862 220.866C66.5913 220.779 66.9532 220.266 66.8344 219.872C66.7156 219.477 66.1754 219.153 65.808 219.331" fill="white"/>
</g>
<g opacity="0.6">
<path d="M62.1831 225.955L62.302 224.297L81.9165 225.68C81.9165 225.68 82.8132 226.112 82.6835 226.749L62.1777 225.955H62.1831Z" fill="white"/>
</g>
<path d="M72.527 220.351C72.5216 220.454 72.0192 220.475 71.5114 220.778C70.9983 221.069 70.7282 221.491 70.6363 221.448C70.5445 221.426 70.7174 220.832 71.3332 220.475C71.949 220.113 72.5486 220.259 72.5216 220.346L72.527 220.351Z" fill="#263238"/>
<path d="M74.6443 221.315C74.6659 221.412 74.223 221.569 73.8664 221.979C73.4991 222.379 73.3965 222.833 73.2938 222.827C73.1966 222.838 73.1534 222.249 73.6071 221.747C74.0555 221.239 74.6443 221.223 74.6443 221.32V221.315Z" fill="#263238"/>
<path d="M75.7623 223.942C75.6705 223.958 75.5516 223.455 75.8271 222.915C76.1026 222.375 76.5834 222.175 76.6212 222.262C76.6752 222.348 76.3565 222.629 76.1351 223.072C75.9028 223.509 75.8596 223.931 75.7569 223.942H75.7623Z" fill="#263238"/>
<path d="M72.439 217.926C72.3958 218.018 71.942 217.861 71.3694 217.878C70.8022 217.878 70.3538 218.056 70.3052 217.969C70.2512 217.894 70.6942 217.543 71.364 217.532C72.0339 217.516 72.4876 217.856 72.439 217.932V217.926Z" fill="#263238"/>
<g opacity="0.3">
<path d="M72.8152 211.972L72.6801 213.852L62.6055 213.371L62.6703 211.199L72.8152 211.972Z" fill="black"/>
</g>
<path d="M72.5567 215.79C72.5567 215.833 72.157 215.876 71.5303 215.746C71.217 215.682 70.8497 215.563 70.4662 215.374C70.2771 215.282 70.0826 215.168 69.8881 215.039C69.7963 214.974 69.6883 214.909 69.5856 214.785C69.4776 214.677 69.4236 214.407 69.5586 214.25C69.6721 214.099 69.8557 214.034 70.007 214.039C70.1582 214.039 70.2771 214.077 70.3905 214.11C70.6174 214.174 70.8281 214.255 71.0226 214.353C71.4061 214.547 71.7194 214.785 71.9463 215.012C72.4055 215.471 72.5513 215.849 72.5189 215.871C72.4703 215.903 72.2542 215.579 71.7842 215.195C71.5519 215.006 71.2494 214.806 70.8875 214.644C70.7092 214.563 70.5094 214.493 70.3041 214.439C70.088 214.374 69.9044 214.363 69.8449 214.461C69.8233 214.499 69.8179 214.509 69.8611 214.574C69.9044 214.634 69.9908 214.693 70.0826 214.758C70.2609 214.882 70.4391 214.996 70.612 215.087C70.9631 215.276 71.2981 215.411 71.5898 215.509C72.1732 215.698 72.5567 215.736 72.5513 215.79H72.5567Z" fill="#263238"/>
<path d="M72.4217 215.933C72.3839 215.95 72.2003 215.582 72.1895 214.929C72.1895 214.605 72.2327 214.216 72.3731 213.811C72.4433 213.605 72.5406 213.4 72.6594 213.195C72.7891 212.995 72.9457 212.73 73.3347 212.703C73.5399 212.703 73.702 212.871 73.7506 213.006C73.8154 213.146 73.8208 213.265 73.8424 213.384C73.8695 213.627 73.8587 213.859 73.8154 214.075C73.7344 214.507 73.5399 214.864 73.3347 215.118C72.9133 215.631 72.492 215.739 72.4812 215.701C72.4487 215.647 72.8053 215.469 73.1348 214.972C73.2969 214.723 73.4427 214.399 73.4967 214.021C73.5237 213.832 73.5291 213.632 73.4967 213.427C73.4751 213.206 73.3995 213.027 73.3185 213.049C73.2158 213.043 73.0376 213.2 72.9457 213.373C72.8323 213.551 72.7405 213.735 72.6702 213.919C72.5298 214.286 72.4595 214.637 72.4325 214.934C72.3785 215.534 72.4758 215.912 72.4163 215.928L72.4217 215.933Z" fill="#263238"/>
<path d="M51.7501 96.1749C51.7501 96.1749 48.4927 96.3153 46.3481 107.406C44.2036 118.49 27.7168 208.309 27.7168 208.309L39.6605 208.417L62.1866 123.023L60.6903 211.053L72.8231 211.982C72.8231 211.982 81.9254 114.59 82.0118 108.923C82.1199 101.858 78.063 94.7109 78.063 94.7109L51.7501 96.1695V96.1749Z" fill="#C3C3C4"/>
<path d="M68.16 95.232C68.2356 95.2482 66.9986 101.579 65.3942 109.374C63.7898 117.169 62.4285 123.479 62.3529 123.463C62.2773 123.446 63.5143 117.115 65.1187 109.315C66.7231 101.52 68.0844 95.2104 68.16 95.2266V95.232Z" fill="#455A64"/>
<path d="M70.0251 96.806C70.0035 96.779 70.3492 96.6763 70.7166 97.0058C70.8894 97.1679 71.0569 97.4326 71.0407 97.7675C71.0353 98.1132 70.776 98.4428 70.4303 98.5886C70.0899 98.7345 69.6686 98.6913 69.4147 98.4536C69.1608 98.2267 69.0906 97.9188 69.096 97.6865C69.1176 97.1895 69.4309 97.0166 69.4363 97.0491C69.4741 97.0761 69.258 97.2813 69.2959 97.6811C69.3121 97.8702 69.3985 98.1078 69.5822 98.2537C69.7604 98.4049 70.0575 98.4374 70.3168 98.3239C70.5815 98.2105 70.7652 97.9836 70.7814 97.7459C70.803 97.5082 70.695 97.2867 70.5707 97.1409C70.306 96.8384 70.0143 96.8492 70.0197 96.8006L70.0251 96.806Z" fill="#455A64"/>
<path d="M69.5059 101.2C69.5005 101.168 69.8409 101.211 70.0299 101.649C70.1109 101.854 70.1488 102.157 69.9975 102.443C69.8463 102.74 69.4789 102.913 69.1224 102.88C68.7659 102.859 68.4255 102.627 68.3229 102.313C68.2149 102.005 68.3013 101.714 68.4147 101.525C68.6686 101.119 69.0144 101.13 69.0035 101.163C69.0198 101.206 68.7497 101.271 68.593 101.616C68.5174 101.784 68.4796 102.016 68.5714 102.221C68.6524 102.427 68.8847 102.583 69.1494 102.605C69.4195 102.627 69.668 102.508 69.7814 102.319C69.9003 102.13 69.9003 101.892 69.8517 101.719C69.749 101.352 69.4951 101.244 69.5167 101.206L69.5059 101.2Z" fill="#455A64"/>
<path d="M58.0587 96.9219C58.0587 96.9219 58.0316 97.1271 57.9182 97.4783C57.8048 97.8294 57.5995 98.3264 57.2862 98.9098C56.6704 100.071 55.5197 101.573 53.8235 102.691C52.1219 103.815 50.2906 104.274 48.978 104.382C48.3189 104.441 47.7841 104.431 47.4168 104.398C47.0495 104.366 46.8496 104.328 46.8496 104.312C46.8496 104.258 47.6653 104.35 48.9564 104.187C50.242 104.031 52.0139 103.55 53.6669 102.459C55.3199 101.368 56.4651 99.9308 57.1133 98.8126C57.7724 97.689 58.01 96.9057 58.0587 96.9273V96.9219Z" fill="#455A64"/>
<path d="M81.2992 104.795C81.2992 104.795 81.1587 104.735 80.9427 104.579C80.7212 104.427 80.4187 104.179 80.0784 103.839C79.3923 103.163 78.582 102.067 78.0418 100.684C77.5124 99.301 77.3774 97.9397 77.4368 96.9781C77.4638 96.4973 77.5178 96.1084 77.5827 95.8491C77.6421 95.5844 77.6853 95.444 77.7015 95.4494C77.7501 95.4602 77.6367 96.0382 77.6367 96.9835C77.6313 97.9235 77.7933 99.2361 78.3065 100.581C78.8251 101.921 79.5868 103.001 80.2242 103.698C80.8616 104.395 81.337 104.752 81.3046 104.795H81.2992Z" fill="#455A64"/>
<path d="M46.9914 74.8048L52.2961 75.0965C52.631 76.8143 53.7978 79.445 53.7978 79.445C58.0708 72.0336 61.3822 62.0994 62.2033 58.1073C62.0844 57.7076 61.944 57.27 61.7657 56.7731C61.5604 56.2059 61.7387 55.1255 61.8305 54.5258C61.9764 53.6345 62.2249 52.4407 62.2951 51.8897C62.522 50.2043 62.7921 49.9396 63.3809 50.1287C64.1804 50.388 63.0514 54.8662 63.7104 54.9634C64.0615 55.0174 64.4937 53.4833 64.6179 52.2246C64.7422 50.966 65.3148 47.0928 65.7307 46.8389C66.3412 46.4607 66.8706 47.0603 66.7193 48.3136C66.5626 49.5831 66.3682 53.3644 67.0326 53.4184C67.6863 53.4671 68.2373 47.0495 68.2373 47.0495C68.2373 47.0495 68.1346 45.6504 68.9017 45.6883C70.29 45.7477 69.2042 52.5163 69.0854 53.1592C69.0043 53.6075 69.7228 53.6885 69.7876 53.2024C69.8524 52.7054 70.1874 46.7848 71.6027 46.8335C72.6885 46.8713 70.76 52.4083 71.3704 53.6939C71.9808 54.9796 72.4022 49.3346 73.4393 49.4102C73.8229 49.4372 74.1092 49.5128 73.4015 52.7108C73.018 54.4286 71.8998 57.5833 70.922 60.1979C69.2798 69.0571 62.0736 97.3957 50.7673 92.2099C44.4417 89.309 41.4922 74.9344 41.4922 74.9344L46.986 74.8102L46.9914 74.8048Z" fill="#FFBE9D"/>
<path d="M70.9283 60.198C70.9283 60.198 70.9391 60.1277 70.9823 60.0035C71.0309 59.863 71.0958 59.6794 71.1714 59.4471C71.3496 58.9339 71.5981 58.2208 71.9115 57.3079C72.2248 56.3788 72.6137 55.239 72.9972 53.8993C73.1917 53.2294 73.3538 52.5056 73.505 51.7331C73.5753 51.3442 73.6509 50.9444 73.6941 50.5339C73.7157 50.3286 73.7373 50.1179 73.7211 49.918C73.7049 49.7074 73.6725 49.5345 73.505 49.5345C73.3322 49.4859 73.2187 49.6317 73.0999 49.81C72.9918 49.9883 72.9054 50.1989 72.8298 50.4096C72.6785 50.8364 72.5597 51.2901 72.4408 51.7493C72.322 52.2139 72.214 52.6892 72.0735 53.1754C71.9871 53.4185 71.9493 53.6562 71.7494 53.9209C71.7116 53.9533 71.6792 53.9965 71.6035 54.0127C71.5225 54.0343 71.4577 54.0019 71.3983 53.9695C71.3226 53.8993 71.2848 53.8291 71.247 53.7642C71.1876 53.6292 71.1498 53.4887 71.1336 53.3537C71.0363 52.2679 71.2848 51.2199 71.4523 50.1341C71.5441 49.5939 71.6414 49.0429 71.717 48.4865C71.7494 48.211 71.7818 47.9301 71.7818 47.6546C71.7926 47.4007 71.7494 47.055 71.6359 47.0064C71.4955 46.9524 71.247 47.109 71.1174 47.3413C70.9661 47.5682 70.8581 47.8329 70.7662 48.1084C70.5772 48.6594 70.4583 49.2428 70.3503 49.837C70.2477 50.4312 70.1666 51.0363 70.1018 51.6521C70.0694 51.96 70.0424 52.2679 70.01 52.5812L69.9667 53.0512C69.9559 53.1808 69.9559 53.4455 69.7507 53.5968C69.5616 53.7372 69.3131 53.7534 69.1132 53.6238C69.0106 53.559 68.935 53.4401 68.9188 53.3159C68.908 53.2565 68.9188 53.197 68.9188 53.143L68.9404 53.0296C68.989 52.7163 69.0376 52.4029 69.0862 52.0842C69.1727 51.4522 69.2537 50.8094 69.3131 50.1611C69.3725 49.5129 69.4212 48.8593 69.4266 48.2056C69.4266 47.5574 69.4265 46.8767 69.2375 46.2825C69.1781 46.1043 69.0754 45.9368 68.9674 45.8936C68.8539 45.8504 68.6865 45.8936 68.6001 46.0124C68.411 46.2771 68.384 46.7093 68.3948 47.0604V47.0766V47.0874C68.2813 48.3569 68.1409 49.6047 67.9572 50.831C67.8654 51.4414 67.7628 52.0518 67.6061 52.6514C67.5683 52.8027 67.5197 52.9539 67.471 53.0998C67.4008 53.2511 67.3792 53.4023 67.1631 53.5644C66.9795 53.6508 66.839 53.5536 66.7688 53.4779C66.6878 53.3969 66.6553 53.3159 66.6229 53.2348C66.5581 53.0782 66.5311 52.9215 66.5041 52.7703C66.3312 51.5548 66.4015 50.3826 66.4717 49.232C66.4933 48.654 66.6337 48.0814 66.5581 47.5736C66.5203 47.3251 66.4231 47.0712 66.2556 46.9578C66.1746 46.9038 66.0773 46.893 65.9801 46.9146C65.9315 46.9308 65.8775 46.947 65.8289 46.9794C65.7802 47.0172 65.791 47.0064 65.7532 47.0712C65.5426 47.5142 65.4399 48.0706 65.3265 48.573C65.2184 49.0915 65.132 49.6047 65.0456 50.1125C64.9645 50.6203 64.8889 51.1227 64.8241 51.6143C64.7593 52.1058 64.7215 52.6028 64.6296 53.0836C64.5378 53.5644 64.4243 54.0343 64.2515 54.4827C64.2083 54.5961 64.1543 54.7042 64.0948 54.8122C64.0192 54.9149 63.976 55.0445 63.7707 55.1093C63.6519 55.1417 63.5492 55.0607 63.4952 54.9959C63.452 54.9257 63.4304 54.8608 63.4088 54.796C63.3818 54.6718 63.371 54.5529 63.3656 54.4341C63.3548 53.5157 63.4898 52.6676 63.5384 51.8519C63.5654 51.4468 63.5816 51.0471 63.5384 50.6797C63.5168 50.5069 63.4574 50.3016 63.3602 50.2638C63.2143 50.2044 63.0306 50.1773 62.9226 50.253C62.6849 50.4258 62.5985 50.8202 62.5229 51.1389C62.4472 51.4738 62.4094 51.8033 62.35 52.122C62.1231 53.4023 61.8854 54.4989 61.772 55.3956C61.718 55.844 61.6964 56.2491 61.7558 56.5841C61.8314 56.9136 61.9394 57.1999 62.0043 57.4268C62.0691 57.6428 62.1177 57.8157 62.1609 57.9507C62.1933 58.0696 62.2095 58.129 62.2041 58.129C62.2041 58.129 62.1717 58.075 62.1285 57.9562C62.0799 57.8265 62.0205 57.6536 61.9449 57.443C61.8692 57.2107 61.7558 56.9514 61.664 56.5949C61.5937 56.2437 61.6045 55.8278 61.6477 55.374C61.745 54.4611 61.9665 53.3699 62.1717 52.0896C62.2312 51.7709 62.2582 51.4306 62.3338 51.0903C62.3716 50.9174 62.4094 50.7445 62.4742 50.5663C62.5445 50.3934 62.6147 50.1989 62.8146 50.0693C63.0252 49.9397 63.2575 49.9883 63.452 50.0585C63.7059 50.2043 63.7167 50.4474 63.7599 50.6365C63.8139 51.0417 63.7977 51.4468 63.7761 51.8573C63.7383 52.6784 63.6087 53.5374 63.6249 54.4125C63.6249 54.5205 63.6411 54.6231 63.6627 54.7204C63.6843 54.823 63.7383 54.8662 63.7275 54.8446C63.7491 54.8446 63.8301 54.7528 63.8733 54.6718C63.922 54.5799 63.9706 54.4773 64.0084 54.3747C64.1705 53.9533 64.2785 53.4941 64.3649 53.0242C64.4568 52.5596 64.4838 52.068 64.5486 51.571C64.608 51.0741 64.6836 50.5717 64.7593 50.0585C64.8403 49.5453 64.9267 49.0321 65.0348 48.5081C65.1536 47.9841 65.2292 47.4602 65.4885 46.9146C65.5047 46.8605 65.6182 46.7363 65.6776 46.7039C65.7478 46.6607 65.8235 46.6337 65.9045 46.6066C66.0719 46.5634 66.2718 46.585 66.4231 46.6877C66.7202 46.8984 66.812 47.2225 66.866 47.5142C66.9092 47.8113 66.8984 48.1084 66.866 48.3947C66.8336 48.6702 66.812 48.9565 66.7904 49.2374C66.7256 50.3664 66.6608 51.5494 66.8282 52.7C66.8552 52.8405 66.8822 52.981 66.9309 53.0998C66.9579 53.1538 66.9849 53.2132 67.0119 53.2402C67.0281 53.2565 67.0335 53.2565 67.0389 53.2619C67.0281 53.3861 67.0389 53.2889 67.0389 53.3159C67.0389 53.2943 67.0335 53.2943 67.0173 53.2673C67.0443 53.2456 67.1307 53.0944 67.1739 52.9701C67.2226 52.8351 67.2658 52.6946 67.2982 52.5488C67.444 51.9708 67.5467 51.3712 67.6385 50.7608C67.8168 49.5453 67.9572 48.2975 68.0707 47.0388V47.0658C68.0653 46.6499 68.0599 46.2177 68.3462 45.7856C68.5136 45.5749 68.8161 45.456 69.1024 45.5641C69.3833 45.6937 69.486 45.9476 69.567 46.1529C69.7831 46.8443 69.7723 47.5196 69.7777 48.1894C69.7669 48.8593 69.7237 49.5183 69.6588 50.1719C69.594 50.8256 69.5184 51.4684 69.4266 52.1112C69.3779 52.43 69.3293 52.7487 69.2807 53.0674C69.2429 53.2673 69.2483 53.2727 69.3077 53.3321C69.3725 53.3807 69.4968 53.3753 69.5616 53.3213C69.6318 53.2727 69.6372 53.1808 69.6534 53.008L69.6966 52.538C69.7291 52.2247 69.7615 51.9114 69.7885 51.6035C69.8587 50.9822 69.9397 50.3718 70.0478 49.7668C70.1558 49.1618 70.2801 48.5676 70.4799 47.9895C70.5826 47.7032 70.696 47.4169 70.8743 47.1522C70.9661 47.0226 71.0687 46.893 71.22 46.7957C71.3767 46.7039 71.5495 46.6229 71.7818 46.7147C72.0033 46.8335 72.0411 47.0388 72.0789 47.1901C72.1005 47.3467 72.1113 47.5034 72.1059 47.6492C72.1059 47.9463 72.0681 48.2326 72.0303 48.5189C71.9547 49.0861 71.852 49.6371 71.7602 50.1773C71.5819 51.2523 71.3388 52.3219 71.4253 53.3105C71.4361 53.4293 71.4685 53.5428 71.5117 53.64C71.5387 53.6886 71.5657 53.7318 71.5819 53.748C71.5819 53.7426 71.5819 53.7372 71.5711 53.7696C71.5711 53.8129 71.5711 53.7588 71.5711 53.7696C71.5495 53.7372 71.5711 53.748 71.5711 53.7318C71.6846 53.5914 71.7656 53.3213 71.8358 53.0998C71.9763 52.6298 72.0897 52.1491 72.2086 51.6845C72.3274 51.2199 72.4516 50.7608 72.6137 50.3232C72.6947 50.1017 72.7812 49.8856 72.9108 49.6804C72.981 49.5777 73.0459 49.4751 73.1593 49.3941C73.2079 49.3508 73.2835 49.3184 73.3538 49.2968C73.4402 49.286 73.505 49.286 73.559 49.2968C73.6887 49.3022 73.8562 49.4157 73.8994 49.5453C73.9534 49.6696 73.9642 49.7884 73.9696 49.9018C73.9804 50.1287 73.9534 50.3448 73.9318 50.5555C73.8832 50.9768 73.8021 51.3766 73.7265 51.7655C73.5699 52.5434 73.397 53.2781 73.1917 53.9425C72.7866 55.2822 72.3814 56.4166 72.0465 57.3403C71.7116 58.2641 71.4361 58.9771 71.247 59.4579C71.1552 59.6848 71.085 59.863 71.0255 60.0035C70.9715 60.1277 70.9445 60.1872 70.9391 60.1872L70.9283 60.198Z" fill="#EB996E"/>
<path d="M41.4464 75.4261C42.4727 79.0454 44.4768 84.6418 46.6322 90.5407C46.9455 91.3942 48.1286 91.4483 48.5175 90.6272L53.8006 79.4559C53.8006 79.4559 52.5258 70.278 52.6338 70.6021C52.7418 70.9263 41.7273 71.7906 41.7273 71.7906L41.4355 75.4315L41.4464 75.4261Z" fill="#274588"/>
<path d="M53.3462 73.6277C53.357 73.6709 52.6871 73.8654 51.6445 74.2651C50.5966 74.6649 49.1813 75.2969 47.7227 76.1774C46.2642 77.0634 45.0488 78.0249 44.2115 78.7704C43.3742 79.5158 42.8934 80.0182 42.861 79.9858C42.8448 79.975 42.9528 79.8346 43.1581 79.5915C43.3579 79.3484 43.6767 79.0189 44.0818 78.6245C44.8921 77.8358 46.1021 76.8365 47.5823 75.9343C49.0624 75.0376 50.5101 74.4272 51.5797 74.0761C52.1145 73.8978 52.5575 73.7736 52.8654 73.7087C53.1733 73.6385 53.3462 73.6061 53.3516 73.6277H53.3462Z" fill="#FAFAFA"/>
<path d="M55.4444 76.4062C55.4173 76.4278 55.0554 76.001 54.5638 75.2502C54.0723 74.4993 53.4564 73.4135 52.9324 72.1495C52.4085 70.88 52.0735 69.6808 51.8899 68.8002C51.7062 67.9197 51.663 67.3687 51.6954 67.3633C51.7386 67.3579 51.8521 67.8981 52.0843 68.757C52.3112 69.6159 52.6732 70.7936 53.1917 72.0414C53.7103 73.2947 54.2883 74.3805 54.7313 75.1475C55.1797 75.9146 55.4768 76.3792 55.4444 76.4062V76.4062Z" fill="#263238"/>
<path d="M58.9724 26.9191C57.1249 29.9064 56.7306 33.7742 57.9406 37.0801C58.4808 38.5657 59.3451 40.0296 59.1884 41.607C59.0264 43.2222 57.8055 44.7455 58.2377 46.3067C58.4916 47.2304 59.2857 47.9165 59.5882 48.824C59.9447 49.8882 59.572 51.0442 59.4045 52.1516C58.9724 54.9822 59.8745 57.8236 60.1014 60.6813C60.3228 63.5335 59.5558 66.8773 57.0115 68.1198C56.239 68.4979 55.2288 68.6059 54.586 68.0279C53.7703 67.2933 53.9972 65.9806 54.2186 64.9002C56.4551 54.0855 49.546 43.5517 51.1233 32.6181C51.3772 30.8679 52.355 27.8914 53.619 26.6652C54.8831 25.4389 58.3673 25.5902 59.5612 26.8813" fill="#263238"/>
<path d="M48.3296 58.2583C48.3296 58.2583 48.6537 57.8694 49.1399 57.1023C49.6261 56.3406 50.2311 55.1522 50.5498 53.564C50.7065 52.77 50.7713 51.8894 50.7173 50.9387C50.6741 49.988 50.5444 48.9616 50.6038 47.8704C50.6255 47.3248 50.7443 46.763 50.9118 46.2174C51.1008 45.6718 51.3547 45.1424 51.6518 44.6292C52.2568 43.6083 53.0239 42.6575 53.7208 41.6365C54.423 40.621 55.001 39.5514 55.1901 38.417C55.3792 37.2826 55.1739 36.159 55.001 35.1002C54.812 34.0414 54.6823 32.9988 54.7633 32.0319C54.8228 31.0649 55.0172 30.1736 55.2819 29.3957C55.8113 27.8346 56.5946 26.7218 57.1888 26.0357C57.4859 25.69 57.7398 25.4361 57.9235 25.2794C58.1018 25.1174 58.199 25.0417 58.2098 25.0471C58.2314 25.0688 57.8479 25.3983 57.2753 26.1059C56.7134 26.8082 55.968 27.9156 55.471 29.4605C55.2279 30.2276 55.0496 31.1027 54.9956 32.0481C54.9308 32.9988 55.0605 34.0036 55.2549 35.0624C55.4332 36.1157 55.6547 37.2664 55.4602 38.4656C55.2657 39.6594 54.6607 40.7776 53.9531 41.7986C53.2454 42.8304 52.4783 43.7757 51.8895 44.7697C51.5924 45.2666 51.3493 45.7798 51.1656 46.3038C51.0036 46.8278 50.8847 47.3572 50.8577 47.892C50.7875 48.9508 50.9118 49.9717 50.9442 50.9333C50.9928 51.8948 50.9118 52.8078 50.7389 53.6127C50.3878 55.2278 49.7395 56.4217 49.2263 57.1725C48.967 57.5507 48.7402 57.8262 48.5835 58.0044C48.4215 58.1827 48.335 58.2745 48.3242 58.2637L48.3296 58.2583Z" fill="#455A64"/>
<path d="M43.2031 59.0678C43.2031 59.0678 43.2517 58.9381 43.3706 58.7059C43.5056 58.452 43.6785 58.1117 43.8946 57.6903C44.3483 56.8098 45.0236 55.5403 45.688 53.9035C46.3417 52.2721 46.9899 50.2302 47.0061 47.902C47.0061 47.324 46.9683 46.7297 46.8764 46.1301C46.7846 45.5305 46.6442 44.9201 46.5523 44.2773C46.4659 43.6398 46.4227 42.9592 46.5955 42.2893C46.763 41.6141 47.1844 41.0199 47.6975 40.5553C48.7185 39.6316 49.9448 39.0266 50.5768 37.9408C51.225 36.8766 51.3709 35.6233 51.5329 34.4781C51.6734 33.3167 51.8949 32.1985 52.2784 31.2153C52.6457 30.2268 53.1373 29.3679 53.6505 28.6386C54.6823 27.1693 55.8275 26.2455 56.654 25.6945C57.0699 25.419 57.4049 25.23 57.6425 25.1165C57.8748 24.9977 58.0045 24.9437 58.0045 24.9545C58.0207 24.9815 57.5183 25.2192 56.7134 25.7864C55.9139 26.359 54.8065 27.2935 53.8126 28.752C53.321 29.4759 52.8456 30.324 52.4999 31.2964C52.138 32.2633 51.9273 33.3491 51.7922 34.5105C51.6356 35.6611 51.5005 36.9414 50.8145 38.0866C50.1284 39.2534 48.8536 39.8747 47.892 40.7606C47.4058 41.2035 47.0277 41.7437 46.871 42.3596C46.7144 42.9754 46.7468 43.6182 46.8332 44.2394C46.9197 44.8661 47.0547 45.4765 47.1465 46.0869C47.2384 46.7027 47.2816 47.3077 47.2708 47.902C47.233 50.2842 46.5577 52.3424 45.8771 53.9792C45.1802 55.6214 44.478 56.8746 43.9972 57.7389C43.7595 58.1495 43.5705 58.479 43.4246 58.7275C43.2896 58.949 43.2139 59.0678 43.2085 59.0624L43.2031 59.0678Z" fill="#455A64"/>
<path d="M221.936 211.705C221.936 211.705 221.963 211.624 222.033 211.478C222.109 211.316 222.211 211.1 222.341 210.824C222.6 210.246 222.941 209.377 223.238 208.21C223.832 205.887 224.043 202.338 223.162 198.119C222.752 196.007 222.093 193.743 221.293 191.345C220.499 188.941 219.581 186.386 218.83 183.631C218.084 180.881 217.501 177.894 217.614 174.761C217.728 171.622 218.657 168.489 219.678 165.372C220.699 162.25 221.752 159.198 222.066 156.13C222.422 153.067 221.769 150.058 220.369 147.589C219.019 145.099 217.317 142.965 216.042 140.761C214.751 138.563 213.941 136.299 213.444 134.198C212.477 129.957 212.817 126.381 213.282 124.026C213.784 121.66 214.341 120.434 214.341 120.434C214.341 120.434 214.325 120.515 214.276 120.671C214.222 120.839 214.152 121.071 214.06 121.357C213.871 121.962 213.628 122.864 213.401 124.048C212.98 126.397 212.677 129.946 213.666 134.144C214.173 136.223 214.984 138.454 216.275 140.626C217.544 142.808 219.251 144.926 220.634 147.449C222.06 149.939 222.746 153.045 222.384 156.162C222.066 159.284 221.007 162.358 219.986 165.475C218.965 168.592 218.047 171.687 217.933 174.772C217.82 177.856 218.387 180.811 219.122 183.55C219.862 186.294 220.769 188.849 221.552 191.259C222.347 193.668 222.995 195.947 223.395 198.076C224.253 202.322 224.005 205.909 223.367 208.237C223.043 209.404 222.687 210.273 222.406 210.846C222.266 211.116 222.152 211.327 222.071 211.489C221.995 211.635 221.952 211.705 221.947 211.7L221.936 211.705Z" fill="#263238"/>
<path d="M217.766 142.938C217.766 142.938 215.179 134.673 219.819 129.833C219.981 129.665 220.267 129.741 220.31 129.973C220.559 131.34 220.867 135.499 217.766 142.938V142.938Z" fill="#9A9A9A"/>
<path d="M219.315 132.586C219.359 132.597 219.283 133.175 219.143 134.109C218.975 135.157 218.775 136.394 218.554 137.756C218.338 139.117 218.143 140.354 217.976 141.402C217.835 142.336 217.749 142.915 217.7 142.909C217.657 142.909 217.662 142.32 217.749 141.375C217.835 140.43 218.003 139.133 218.235 137.707C218.467 136.281 218.716 134.995 218.921 134.072C219.121 133.148 219.278 132.581 219.321 132.586H219.315Z" fill="#263238"/>
<path d="M220.805 162.446C220.805 162.446 222.387 153.927 228.751 151.821C228.972 151.745 229.189 151.95 229.118 152.177C228.697 153.501 227.028 157.32 220.805 162.446Z" fill="#9A9A9A"/>
<path d="M227.013 154.023C227.045 154.05 226.71 154.531 226.143 155.288C225.5 156.136 224.749 157.135 223.917 158.237C223.091 159.339 222.34 160.338 221.703 161.192C221.141 161.954 220.795 162.423 220.757 162.396C220.719 162.375 221 161.856 221.519 161.062C222.038 160.268 222.794 159.199 223.664 158.048C224.539 156.897 225.36 155.876 225.97 155.152C226.581 154.429 226.98 154.002 227.018 154.029L227.013 154.023Z" fill="#263238"/>
<path d="M219.083 183.804C219.083 183.804 218.121 175.193 223.599 171.331C223.793 171.196 224.058 171.331 224.052 171.563C224.036 172.952 223.545 177.09 219.083 183.804V183.804Z" fill="#9A9A9A"/>
<path d="M222.577 173.934C222.62 173.95 222.437 174.507 222.118 175.398C221.751 176.398 221.319 177.57 220.843 178.866C220.373 180.163 219.941 181.335 219.579 182.334C219.26 183.226 219.066 183.777 219.023 183.766C218.985 183.755 219.098 183.177 219.363 182.264C219.628 181.351 220.038 180.109 220.541 178.753C221.043 177.397 221.529 176.181 221.907 175.312C222.28 174.442 222.539 173.913 222.583 173.934H222.577Z" fill="#263238"/>
<path d="M223.881 205.292C223.881 205.292 223.227 196.654 228.84 192.986C229.034 192.856 229.299 193.002 229.288 193.235C229.223 194.623 228.586 198.739 223.881 205.292V205.292Z" fill="#9A9A9A"/>
<path d="M227.726 195.559C227.77 195.575 227.564 196.126 227.213 197.007C226.808 197.99 226.338 199.146 225.814 200.426C225.295 201.706 224.825 202.862 224.426 203.846C224.075 204.721 223.864 205.266 223.821 205.255C223.783 205.245 223.918 204.672 224.215 203.77C224.512 202.868 224.966 201.642 225.517 200.302C226.068 198.968 226.597 197.768 227.002 196.915C227.408 196.061 227.683 195.543 227.726 195.559V195.559Z" fill="#263238"/>
<path d="M214.052 135.68C214.052 135.68 206.376 131.672 206.225 124.968C206.225 124.73 206.479 124.585 206.673 124.72C207.813 125.508 210.978 128.226 214.052 135.68V135.68Z" fill="#9A9A9A"/>
<path d="M207.816 127.271C207.854 127.244 208.211 127.708 208.773 128.47C209.394 129.334 210.128 130.344 210.939 131.463C211.749 132.581 212.484 133.586 213.11 134.45C213.672 135.212 214.023 135.676 213.985 135.708C213.953 135.736 213.542 135.32 212.932 134.59C212.322 133.861 211.522 132.829 210.679 131.652C209.837 130.479 209.102 129.394 208.589 128.6C208.076 127.805 207.784 127.292 207.822 127.271H207.816Z" fill="#263238"/>
<path d="M222.296 153.429C222.296 153.429 214.388 149.891 213.831 143.214C213.81 142.982 214.064 142.82 214.264 142.938C215.452 143.657 218.774 146.18 222.296 153.429Z" fill="#9A9A9A"/>
<path d="M215.559 145.415C215.597 145.388 215.98 145.831 216.585 146.555C217.261 147.376 218.055 148.343 218.93 149.413C219.81 150.477 220.604 151.438 221.28 152.259C221.885 152.983 222.263 153.432 222.23 153.464C222.198 153.491 221.76 153.102 221.112 152.411C220.458 151.719 219.6 150.736 218.681 149.618C217.768 148.5 216.969 147.463 216.407 146.695C215.845 145.934 215.526 145.442 215.559 145.415Z" fill="#263238"/>
<path d="M217.749 173.236C217.749 173.236 212.32 166.489 214.864 160.287C214.956 160.071 215.248 160.039 215.372 160.239C216.101 161.416 217.911 165.176 217.743 173.236H217.749Z" fill="#9A9A9A"/>
<path d="M215.405 163.031C215.448 163.026 215.594 163.593 215.8 164.517C216.026 165.559 216.291 166.775 216.583 168.125C216.88 169.47 217.15 170.691 217.377 171.728C217.588 172.647 217.717 173.219 217.674 173.236C217.636 173.246 217.426 172.701 217.155 171.788C216.891 170.875 216.572 169.605 216.264 168.196C215.962 166.78 215.724 165.495 215.573 164.56C215.421 163.626 215.357 163.042 215.4 163.031H215.405Z" fill="#263238"/>
<path d="M223.121 196.541C223.121 196.541 215.272 192.873 214.829 186.186C214.813 185.953 215.067 185.791 215.266 185.921C216.439 186.661 219.718 189.238 223.121 196.547V196.541Z" fill="#9A9A9A"/>
<path d="M216.525 188.412C216.563 188.385 216.941 188.833 217.536 189.568C218.195 190.4 218.972 191.383 219.831 192.463C220.69 193.544 221.468 194.516 222.133 195.348C222.727 196.082 223.094 196.536 223.062 196.569C223.029 196.596 222.597 196.196 221.96 195.499C221.322 194.797 220.474 193.797 219.577 192.663C218.681 191.529 217.903 190.481 217.357 189.703C216.812 188.93 216.493 188.433 216.531 188.406L216.525 188.412Z" fill="#263238"/>
<path d="M238.749 162.478C238.749 162.478 238.76 162.543 238.76 162.667C238.76 162.818 238.749 163.002 238.744 163.224C238.722 163.742 238.69 164.444 238.652 165.325C238.549 167.172 238.409 169.744 238.241 172.823V172.839C237.679 175.972 236.086 179.446 233.941 182.822C232.369 185.307 230.722 187.565 229.296 189.666C227.864 191.762 226.654 193.701 225.817 195.419C224.969 197.137 224.477 198.612 224.191 199.643C224.05 200.162 223.948 200.562 223.888 200.843C223.823 201.118 223.786 201.264 223.775 201.259C223.764 201.259 223.78 201.107 223.823 200.827C223.861 200.546 223.948 200.135 224.066 199.611C224.32 198.563 224.785 197.067 225.611 195.322C226.432 193.577 227.632 191.611 229.052 189.499C230.462 187.381 232.105 185.123 233.671 182.649C235.805 179.294 237.393 175.869 237.971 172.785V172.801C238.187 169.722 238.365 167.151 238.495 165.309C238.565 164.434 238.625 163.731 238.663 163.213C238.684 162.991 238.7 162.813 238.717 162.662C238.733 162.537 238.744 162.473 238.749 162.473V162.478Z" fill="#263238"/>
<path d="M234.08 182.171C234.08 182.171 237.402 174.171 233.221 168.931C233.076 168.747 232.784 168.801 232.719 169.028C232.346 170.368 231.666 174.479 234.08 182.171Z" fill="#9A9A9A"/>
<path d="M233.475 171.727C233.519 171.727 233.621 172.299 233.74 173.239C233.859 174.179 233.989 175.481 234.091 176.923C234.194 178.366 234.242 179.673 234.242 180.624C234.242 181.574 234.194 182.158 234.151 182.158C234.102 182.158 234.07 181.574 234.016 180.629C233.945 179.57 233.859 178.322 233.767 176.945C233.67 175.567 233.583 174.319 233.508 173.261C233.448 172.315 233.427 171.732 233.47 171.727H233.475Z" fill="#263238"/>
<g opacity="0.3">
<path d="M234.08 182.175C234.08 182.175 237.402 174.175 233.221 168.935C233.076 168.751 232.784 168.805 232.719 169.032C232.346 170.372 231.666 174.483 234.08 182.175Z" fill="black"/>
</g>
<path d="M223.786 201.446C223.786 201.446 226.449 193.203 221.857 188.32C221.695 188.147 221.409 188.228 221.366 188.455C221.106 189.816 220.755 193.97 223.786 201.446Z" fill="#9A9A9A"/>
<path d="M222.338 191.08C222.382 191.069 222.533 191.641 222.722 192.565C222.916 193.494 223.154 194.78 223.37 196.206C223.592 197.632 223.743 198.934 223.824 199.879C223.9 200.825 223.9 201.414 223.856 201.419C223.808 201.419 223.732 200.841 223.597 199.906C223.44 198.853 223.257 197.621 223.051 196.255C222.846 194.888 222.657 193.656 222.495 192.603C222.36 191.668 222.29 191.085 222.333 191.074L222.338 191.08Z" fill="#263238"/>
<g opacity="0.3">
<path d="M223.786 201.446C223.786 201.446 226.449 193.203 221.857 188.32C221.695 188.147 221.409 188.228 221.366 188.455C221.106 189.816 220.755 193.97 223.786 201.446Z" fill="black"/>
</g>
<path d="M238.312 172.4C238.312 172.4 245.411 167.43 244.692 160.769C244.665 160.537 244.39 160.424 244.217 160.58C243.185 161.509 240.403 164.615 238.312 172.4V172.4Z" fill="#9A9A9A"/>
<g opacity="0.3">
<path d="M238.312 172.4C238.312 172.4 245.411 167.43 244.692 160.769C244.665 160.537 244.39 160.424 244.217 160.58C243.185 161.509 240.403 164.615 238.312 172.4V172.4Z" fill="black"/>
</g>
<path d="M243.408 163.258C243.445 163.28 243.224 163.82 242.819 164.679C242.414 165.533 241.825 166.705 241.139 167.974C240.453 169.249 239.794 170.378 239.28 171.178C238.767 171.977 238.416 172.447 238.378 172.42C238.341 172.393 238.627 171.885 239.081 171.059C239.588 170.124 240.188 169.028 240.847 167.818C241.506 166.602 242.1 165.506 242.608 164.571C243.067 163.745 243.359 163.237 243.402 163.258H243.408Z" fill="#263238"/>
<path d="M226.648 193.28C226.648 193.28 235.205 191.946 237.501 185.647C237.582 185.426 237.382 185.204 237.155 185.269C235.821 185.653 231.953 187.209 226.648 193.28Z" fill="#9A9A9A"/>
<g opacity="0.3">
<path d="M226.648 193.284C226.648 193.284 235.205 191.95 237.501 185.651C237.582 185.43 237.382 185.208 237.155 185.273C235.821 185.657 231.953 187.212 226.648 193.284Z" fill="black"/>
</g>
<path d="M235.249 187.319C235.276 187.356 234.839 187.74 234.093 188.334C233.353 188.923 232.311 189.717 231.133 190.554C229.955 191.397 228.864 192.121 228.054 192.613C227.244 193.104 226.72 193.369 226.698 193.331C226.676 193.288 227.157 192.958 227.93 192.418C228.799 191.802 229.82 191.084 230.944 190.29C232.067 189.49 233.088 188.766 233.953 188.151C234.725 187.61 235.217 187.286 235.244 187.319H235.249Z" fill="#263238"/>
<path d="M218.484 209.043L215.988 225.848H231.546L229.531 209.043H218.484Z" fill="#455A64"/>
<path d="M230.153 214.244C230.153 214.336 227.344 214.406 223.881 214.406C220.418 214.406 217.609 214.336 217.609 214.244C217.609 214.152 220.418 214.082 223.881 214.082C227.344 214.082 230.153 214.152 230.153 214.244Z" fill="#263238"/>
<path d="M230.462 215.588C230.462 215.68 227.561 215.75 223.985 215.75C220.409 215.75 217.508 215.68 217.508 215.588C217.508 215.496 220.409 215.426 223.985 215.426C227.561 215.426 230.462 215.496 230.462 215.588Z" fill="#263238"/>
<path d="M169.964 46.0722C169.964 46.0722 169.819 46.0722 169.543 46.0668C169.262 46.056 168.852 46.0344 168.306 46.0722C167.226 46.1317 165.611 46.3369 163.704 47.131C161.818 47.9251 159.614 49.335 157.859 51.6849C156.989 52.8571 156.26 54.2616 155.817 55.8606C155.39 57.4596 155.244 59.2314 155.449 61.0573C155.682 62.8777 156.238 64.7576 157.259 66.4862C157.767 67.3505 158.366 68.1878 159.096 68.9225C159.803 69.6842 160.641 70.354 161.581 70.8672C162.521 71.375 163.596 71.6991 164.698 71.6505C165.789 71.6127 166.918 71.2291 167.717 70.435C168.522 69.641 168.922 68.4795 168.922 67.3235C168.927 66.1567 168.522 64.9953 167.825 64.0121C166.421 62.0404 164.157 60.7169 161.743 59.9985C159.306 59.2908 156.632 59.2692 154.072 59.8904C152.797 60.22 151.549 60.7115 150.377 61.3598C149.205 62.0134 148.141 62.8669 147.206 63.8501C146.985 64.1094 146.731 64.3416 146.536 64.6171L145.926 65.4382C145.569 66.0217 145.207 66.6051 144.932 67.2425C144.359 68.4957 143.96 69.8408 143.76 71.2237C143.398 73.9895 143.733 76.8418 144.851 79.3267C145.931 81.817 147.773 83.9561 150.069 85.2418C151.214 85.8792 152.478 86.2952 153.764 86.3654C155.044 86.4464 156.325 86.1169 157.41 85.4903C158.496 84.8691 159.404 83.9291 159.879 82.8055C160.349 81.6765 160.344 80.3908 159.933 79.2726C159.533 78.1436 158.777 77.1767 157.902 76.3988C157.021 75.6263 155.99 75.0429 154.915 74.6648C152.738 73.9517 150.415 73.9895 148.34 74.5513C146.261 75.1185 144.402 76.1881 142.944 77.5602C141.491 78.9377 140.47 80.6285 139.854 82.3517C138.606 85.8306 138.925 89.3581 139.994 92.0591C141.096 94.7816 142.847 96.7155 144.446 97.9958C146.061 99.2869 147.525 99.9837 148.535 100.378C149.043 100.573 149.432 100.708 149.702 100.783C149.966 100.864 150.102 100.918 150.102 100.918C150.102 100.918 149.961 100.886 149.691 100.816C149.421 100.751 149.027 100.621 148.508 100.437C147.492 100.059 146.007 99.3733 144.37 98.0876C142.749 96.8128 140.972 94.8681 139.843 92.1239C138.747 89.3959 138.406 85.8252 139.66 82.2923C140.281 80.5367 141.313 78.8189 142.787 77.409C144.267 76.0099 146.153 74.9133 148.27 74.3352C150.382 73.7626 152.748 73.714 154.99 74.4379C156.098 74.8268 157.156 75.421 158.064 76.2151C158.966 77.0092 159.749 78.0086 160.171 79.1916C160.598 80.3638 160.614 81.7197 160.117 82.9136C159.614 84.1074 158.669 85.0797 157.54 85.7334C156.411 86.3816 155.077 86.7273 153.748 86.6463C152.419 86.5761 151.112 86.1493 149.934 85.4903C147.579 84.1722 145.699 81.9844 144.597 79.4455C143.457 76.9066 143.117 74.0057 143.484 71.1913C143.689 69.7814 144.095 68.4093 144.683 67.1345C144.964 66.4862 145.337 65.892 145.699 65.2924L146.32 64.4497C146.52 64.1634 146.779 63.9257 147.006 63.6664C147.962 62.6616 149.054 61.7919 150.247 61.1275C151.441 60.4684 152.711 59.9715 154.013 59.6311C156.622 58.9991 159.344 59.0207 161.829 59.7446C164.292 60.4792 166.599 61.8243 168.052 63.8663C168.771 64.8818 169.197 66.1027 169.187 67.3235C169.187 68.539 168.765 69.7652 167.901 70.6133C167.042 71.4614 165.854 71.8612 164.714 71.8936C163.563 71.9368 162.44 71.5965 161.478 71.0725C160.511 70.5431 159.658 69.8516 158.939 69.0792C158.194 68.3229 157.589 67.4694 157.075 66.5943C156.044 64.8332 155.487 62.9209 155.26 61.0789C155.061 59.226 155.212 57.4325 155.655 55.812C156.108 54.1968 156.854 52.7707 157.74 51.5876C159.528 49.2162 161.764 47.8117 163.671 47.023C165.6 46.2343 167.231 46.0506 168.311 46.0074C168.857 45.9804 169.273 46.0074 169.554 46.029C169.835 46.0452 169.975 46.0614 169.975 46.0614L169.964 46.0722Z" fill="#263238"/>
<path d="M188.006 100.129H112.266V158.546H188.006V100.129Z" fill="#A5A4A4"/>
<path d="M112.268 100.117L126.253 113.168H200.714L188.008 100.117H112.268Z" fill="#A5A4A4"/>
<path d="M112.268 100.117C113.634 100.117 144.917 100.058 188.008 99.9766H188.068L188.111 100.02C192.168 104.185 196.381 108.512 200.687 112.93C200.73 112.974 200.773 113.022 200.816 113.065L201.049 113.303H200.714C170.182 113.282 143.086 113.26 126.259 113.249H126.226L126.205 113.228C117.453 104.99 112.732 100.549 112.273 100.117C112.738 100.544 117.491 104.946 126.318 113.103L126.259 113.082C143.086 113.071 170.182 113.049 200.714 113.028L200.611 113.265C200.568 113.222 200.525 113.179 200.481 113.13C196.176 108.706 191.968 104.379 187.911 100.214L188.008 100.257C144.917 100.176 113.634 100.122 112.268 100.117V100.117Z" fill="#263238"/>
<path d="M135.014 127.066C134.214 127.066 133.48 127.79 133.469 128.59C133.453 129.389 134.16 130.135 134.96 130.167C135.759 130.194 136.521 129.503 136.564 128.703C136.608 127.904 135.932 127.131 135.133 127.072" fill="#263238"/>
<path d="M152.899 127.066C152.099 127.066 151.365 127.79 151.354 128.59C151.338 129.389 152.045 130.135 152.845 130.167C153.644 130.194 154.406 129.503 154.449 128.703C154.492 127.904 153.817 127.131 153.018 127.072" fill="#263238"/>
<path d="M153.014 141.049C152.933 141.081 152.814 139.585 151.512 137.689C150.874 136.749 149.918 135.749 148.649 134.944C147.39 134.134 145.786 133.556 144.057 133.491C142.329 133.459 140.697 133.951 139.395 134.691C138.083 135.425 137.078 136.371 136.386 137.273C134.987 139.093 134.782 140.579 134.706 140.541C134.696 140.541 134.712 140.449 134.75 140.287C134.798 140.125 134.831 139.871 134.95 139.569C135.144 138.953 135.544 138.088 136.23 137.148C136.91 136.209 137.931 135.225 139.266 134.458C140.595 133.686 142.275 133.167 144.063 133.205C145.851 133.27 147.498 133.88 148.784 134.723C150.075 135.566 151.042 136.603 151.669 137.575C152.306 138.548 152.652 139.434 152.814 140.06C152.916 140.368 152.938 140.622 152.97 140.789C152.997 140.957 153.008 141.043 153.003 141.049H153.014Z" fill="#263238"/>
<path opacity="0.5" d="M112.434 100.766L125.83 117.749H188.007V113.174H126.252L112.434 100.766Z" fill="black"/>
<path d="M173.07 158.415C172.995 158.415 172.93 148.253 172.93 135.721C172.93 123.188 172.995 113.027 173.07 113.027C173.146 113.027 173.211 123.188 173.211 135.721C173.211 148.253 173.146 158.415 173.07 158.415Z" fill="#263238"/>
<path d="M184.962 145.164H178.285V152.711H184.962V145.164Z" fill="#F5F5F5"/>
<path d="M112.265 100.125L96.7129 113.176H112.265V100.125Z" fill="#A5A4A4"/>
<g opacity="0.4">
<path d="M112.265 100.125L96.7129 113.176H112.265V100.125Z" fill="black"/>
</g>
<path d="M190.245 158.531H103.16V225.699H190.245V158.531Z" fill="#D5D5D5"/>
<path opacity="0.3" d="M190.245 158.531H103.16V225.699H190.245V158.531Z" fill="black"/>
<path d="M168.422 225.224C168.346 225.224 168.281 210.25 168.281 191.786C168.281 173.322 168.346 158.348 168.422 158.348C168.497 158.348 168.562 173.316 168.562 191.786C168.562 210.255 168.497 225.224 168.422 225.224Z" fill="#3B4549"/>
<path d="M182.86 210.414H176.184V217.961H182.86V210.414Z" fill="#F5F5F5"/>
<path d="M139.619 158.703H129.729V173.035H139.619V158.703Z" fill="#3B4549"/>
<path d="M139.619 211.168H129.729V225.499H139.619V211.168Z" fill="#3B4549"/>
<path d="M189.484 158.533C189.484 158.533 189.408 158.543 189.262 158.549C189.1 158.549 188.884 158.554 188.609 158.565C188.02 158.57 187.172 158.581 186.091 158.592C183.893 158.603 180.738 158.619 176.843 158.635C169.021 158.646 158.234 158.662 146.328 158.678C134.411 158.662 123.629 158.646 115.807 158.635C111.912 158.619 108.757 158.603 106.558 158.592C105.478 158.581 104.635 158.57 104.041 158.565C103.766 158.56 103.55 158.554 103.387 158.549C103.242 158.549 103.166 158.538 103.166 158.533C103.166 158.527 103.242 158.522 103.387 158.516C103.55 158.516 103.766 158.511 104.041 158.5C104.63 158.495 105.478 158.484 106.558 158.473C108.757 158.462 111.912 158.446 115.807 158.43C123.629 158.419 134.416 158.403 146.328 158.387C158.239 158.403 169.021 158.419 176.843 158.43C180.738 158.452 183.893 158.462 186.091 158.473C187.172 158.484 188.014 158.495 188.609 158.5C188.884 158.506 189.1 158.511 189.262 158.516C189.408 158.516 189.484 158.527 189.484 158.533Z" fill="#3B4549"/>
<path d="M40.2398 42.2358C39.6131 42.0846 36.5934 41.3391 30.7593 39.9076L30.8296 39.8968C28.7444 41.2257 25.9192 42.3006 22.6456 42.3493C21.0142 42.3439 19.291 42.1494 17.5732 41.6092C15.8554 41.0744 14.1645 40.1885 12.6304 38.9892C9.55668 36.6124 7.16902 32.804 6.65043 28.423C6.38573 26.246 6.564 23.9556 7.23924 21.7624C7.93069 19.5746 9.11912 17.5057 10.7235 15.7609C11.5338 14.8371 12.4953 14.0754 13.4677 13.3678C13.9809 13.0491 14.4833 12.725 15.0127 12.4441L15.8175 12.0551L16.2173 11.8606L16.6332 11.7094C18.8426 10.8505 21.1925 10.521 23.4505 10.6722C25.7085 10.8181 27.8747 11.4501 29.7654 12.4441C31.6615 13.438 33.2875 14.7885 34.5623 16.3173C35.8426 17.8514 36.7717 19.5638 37.3605 21.2925C37.9493 23.0265 38.2194 24.7659 38.2356 26.4135C38.2572 29.7195 37.2201 32.5555 35.9614 34.6299V34.5434C38.5976 39.3026 39.9319 41.7064 40.2236 42.2358C39.921 41.7118 38.5436 39.335 35.8102 34.6299L35.7832 34.5867L35.8102 34.5434C37.0364 32.4853 38.0358 29.6763 37.998 26.4189C37.9763 24.7983 37.7008 23.0805 37.112 21.3789C36.5232 19.6773 35.6049 17.9973 34.3408 16.4955C33.0822 14.9938 31.4832 13.6703 29.6195 12.7034C27.7613 11.731 25.6383 11.1152 23.4181 10.9747C21.2033 10.8289 18.8967 11.1584 16.7359 12.0011L16.3253 12.1524L15.931 12.3414L15.1423 12.725C14.6237 13.0005 14.1321 13.3192 13.6243 13.6325C12.6682 14.3239 11.7283 15.0748 10.9342 15.9769C9.36221 17.684 8.19539 19.7151 7.51474 21.8597C6.8503 24.0096 6.67204 26.2514 6.93133 28.3906C7.43371 32.6906 9.76735 36.4341 12.7816 38.7786C14.2888 39.9616 15.9418 40.8367 17.6326 41.3715C19.3234 41.9063 21.0196 42.1062 22.624 42.1224C25.849 42.09 28.6418 41.0474 30.7161 39.7509L30.7485 39.7293L30.7863 39.7401C36.5988 41.2797 39.6023 42.0792 40.2236 42.2412L40.2398 42.2358Z" fill="#263238"/>
<path d="M21.0837 19.4537L21.5861 27.373C21.6293 28.0212 22.1425 28.5344 22.7907 28.5722C23.4713 28.6154 24.071 28.1131 24.1466 27.4324L25.0271 19.4699C25.0919 18.8649 24.6166 18.3409 24.0115 18.3517L22.0776 18.3787C21.4996 18.3841 21.0513 18.8757 21.0837 19.4483V19.4537Z" fill="#274588"/>
<path d="M24.8915 33.0246C24.5566 34.0402 23.46 34.5858 22.4498 34.2509C21.4343 33.916 20.8887 32.8194 21.2236 31.8092C21.5585 30.7936 22.6551 30.248 23.6653 30.583C24.6808 30.9179 25.2264 32.0145 24.8915 33.0246V33.0246Z" fill="#274588"/>
</g>
<defs>
<clipPath id="clip0_9308_106805">
<rect width="244.746" height="230.042" fill="white"/>
</clipPath>
</defs>
</svg>
