<svg width="24" height="24" viewBox="0 0 24 24" fill="none" xmlns="http://www.w3.org/2000/svg">
<g clip-path="url(#clip0_9481_104086)">
<path d="M7.13545 5.40936L5.02344 11.2389V23.7226L22.4647 20.9691L22.9696 9.17351L18.0092 4.60938L7.13545 5.40936Z" fill="#FF7B7B"/>
<path d="M8.40952 0.918158C8.54205 0.561461 8.4291 0.487974 8.15599 0.75232L6.23476 2.61545L7.49997 2.49831L4.749 5.96228V4.05653L1.03125 7.66249V18.861L4.749 24.0012L4.56524 11.196L8.40952 0.918158Z" fill="#FF7B7B"/>
<path d="M5.02344 3.48365V5.23943L6.88215 2.89844L5.43468 3.03262C5.20806 3.05417 5.02344 3.256 5.02344 3.48365Z" fill="#FF7B7B"/>
<path d="M19.3783 2.93036C19.3783 2.70287 19.1939 2.50041 18.967 2.47918L17.7058 2.3622L15.9751 0.2955C15.7311 0.00439555 15.6816 0.0384945 15.8635 0.37167L17.9655 4.20867L22.9689 8.6492L19.3783 4.36062V2.93036Z" fill="#FF7B7B"/>
<path d="M8.88581 0.85901L7.42578 4.9014L17.5203 4.19313L15.5438 0.577772C15.3607 0.243965 14.9053 -0.0143032 14.5249 0.000615084L9.80775 0.184686C9.42752 0.19921 9.01486 0.501049 8.88581 0.85901ZM14.3276 1.72167C14.7072 1.70209 15.1543 1.96146 15.3249 2.30103L15.6895 3.02343L9.18583 3.40657L9.44994 2.61424C9.57024 2.25359 9.97564 1.94552 10.3553 1.92594L14.3276 1.72167Z" fill="#FF7B7B"/>
<g clip-path="url(#clip1_9481_104086)">
<rect x="9" y="9" width="10" height="10" rx="5" fill="#E10000"/>
<path d="M14.0003 13.4102L16.0628 11.3477L16.652 11.9368L14.5895 13.9993L16.652 16.0618L16.0628 16.651L14.0003 14.5885L11.9378 16.651L11.3486 16.0618L13.4111 13.9993L11.3486 11.9368L11.9378 11.3477L14.0003 13.4102Z" fill="white" fill-opacity="0.9"/>
</g>
</g>
<defs>
<clipPath id="clip0_9481_104086">
<rect width="24" height="24" fill="white"/>
</clipPath>
<clipPath id="clip1_9481_104086">
<rect x="9" y="9" width="10" height="10" rx="5" fill="white"/>
</clipPath>
</defs>
</svg>
