<svg width="39" height="38" viewBox="0 0 39 38" fill="none" xmlns="http://www.w3.org/2000/svg">
<rect x="0.5" width="38" height="38" rx="1" fill="white"/>
<path fill-rule="evenodd" clip-rule="evenodd" d="M27.64 19.2042C27.64 18.566 27.5827 17.9524 27.4764 17.3633H19V20.8446H23.8436C23.635 21.9696 23.0009 22.9228 22.0477 23.561V25.8192H24.9564C26.6582 24.2524 27.64 21.9451 27.64 19.2042Z" fill="#4285F4"/>
<path fill-rule="evenodd" clip-rule="evenodd" d="M18.9998 28.0009C21.4298 28.0009 23.467 27.195 24.9561 25.8205L22.0475 23.5623C21.2416 24.1023 20.2107 24.4214 18.9998 24.4214C16.6557 24.4214 14.6716 22.8382 13.9638 20.7109H10.957V23.0428C12.4379 25.9841 15.4816 28.0009 18.9998 28.0009Z" fill="#34A853"/>
<path fill-rule="evenodd" clip-rule="evenodd" d="M13.9641 20.7108C13.7841 20.1708 13.6818 19.594 13.6818 19.0008C13.6818 18.4076 13.7841 17.8308 13.9641 17.2908V14.959H10.9573C10.3477 16.174 10 17.5485 10 19.0008C10 20.4531 10.3477 21.8276 10.9573 23.0426L13.9641 20.7108Z" fill="#FBBC05"/>
<path fill-rule="evenodd" clip-rule="evenodd" d="M18.9998 13.5795C20.3211 13.5795 21.5075 14.0336 22.4402 14.9255L25.0216 12.3441C23.4629 10.8918 21.4257 10 18.9998 10C15.4816 10 12.4379 12.0168 10.957 14.9582L13.9638 17.29C14.6716 15.1627 16.6557 13.5795 18.9998 13.5795Z" fill="#EA4335"/>
</svg>
