<svg width="24" height="24" viewBox="0 0 24 24" fill="none" xmlns="http://www.w3.org/2000/svg">
    <path d="M16.956 2H3a1 1 0 0 0-1 1v15.969a1 1 0 0 0 1 1h13.956a1 1 0 0 0 1-1V3a1 1 0 0 0-1-1z" fill="#274588" stroke="#DDD9D1" stroke-width=".5"/>
    <path d="M12.586 20.586v-7.617a1 1 0 0 1 1-1h1.455V9.87c0-.262.098-.518.306-.678.761-.586 2.144-1.113 3.485-.007.202.167.3.423.3.685v2.099h1.864a1 1 0 0 1 1 1v7.358c0 .933-.945 1.457-1.516 1.637a.815.815 0 0 1-.246.035h-6.42c-.584 0-.995-.665-1.173-1.105a.817.817 0 0 1-.055-.308z" fill="#fff"/>
    <path d="M15.04 11.97h-1.454a1 1 0 0 0-1 1v7.616c0 .105.015.21.055.308.178.44.589 1.105 1.172 1.105h6.42c.084 0 .167-.01.247-.035.57-.18 1.516-.703 1.516-1.637v-7.358a1 1 0 0 0-1-1h-1.864m-4.091 0V9.87c0-.262.098-.518.306-.678.761-.586 2.144-1.113 3.485-.007.202.167.3.423.3.685v2.099m-4.091 0h4.091" stroke="#274588"/>
    <path d="M8.14 4.922h6.138M8.14 8.266h4.501M8.14 11.61h2.455" stroke="#F5B21B" stroke-linecap="round"/>
    <path d="m3.64 5.065.522 1.114L6.25 4.508M3.64 8.409l.522 1.114L6.25 7.852M3.64 11.752l.522 1.115 2.087-1.672" stroke="#fff" stroke-width=".7" stroke-linecap="round"/>
    <circle cx="17.5" cy="17.5" r="3.5" fill="#fff"/>
    <path d="M17.496 14.64a2.865 2.865 0 0 0 0 5.728 2.865 2.865 0 0 0 0-5.727zm-.776 4.093-1.028-1.028a.285.285 0 1 1 .404-.404l.828.825 1.97-1.97a.285.285 0 1 1 .404.403l-2.174 2.174a.285.285 0 0 1-.404 0z" fill="#1CA65B"/>
</svg>
