<svg width="24" height="24" viewBox="0 0 24 24" fill="none" xmlns="http://www.w3.org/2000/svg">
    <path d="M8.12 8.603c.066.072.151.108.236.108.086 0 .171-.036.236-.108a.397.397 0 0 0 0-.521 1.037 1.037 0 0 1 0-1.36c.29-.32.45-.748.45-1.201 0-.454-.16-.88-.45-1.202a.31.31 0 0 0-.471 0 .397.397 0 0 0 0 .522c.164.181.254.423.254.68 0 .256-.09.498-.254.68-.599.662-.599 1.74 0 2.402zM15.449 8.603c.065.072.15.108.235.108.086 0 .171-.036.236-.108a.397.397 0 0 0 0-.521 1.037 1.037 0 0 1 0-1.36c.29-.32.45-.748.45-1.201 0-.454-.16-.88-.45-1.202a.31.31 0 0 0-.471 0 .397.397 0 0 0 0 .522c.164.181.254.423.254.68 0 .256-.09.498-.254.68-.599.662-.599 1.74 0 2.402zM11.785 6.392c.065.072.15.108.235.108.086 0 .171-.036.236-.108a.397.397 0 0 0 0-.521 1.037 1.037 0 0 1 0-1.36c.29-.32.45-.747.45-1.201 0-.454-.16-.88-.45-1.202a.31.31 0 0 0-.471 0 .397.397 0 0 0 0 .522c.164.182.254.423.254.68 0 .257-.09.498-.254.68-.599.662-.599 1.74 0 2.402zM20.541 17.067c-.604-3.927-3.369-7.047-6.889-7.803.006-.059.015-.118.015-.177 0-1.017-.748-1.845-1.667-1.845s-1.667.828-1.667 1.845c0 .059.009.118.015.177-3.52.756-6.285 3.876-6.89 7.803-.696.436-1.458 1.078-1.458 1.8 0 1.875 5.17 3.136 10 3.136s10-1.26 10-3.137c0-.72-.762-1.363-1.459-1.8zM11.002 9.15A1.053 1.053 0 0 1 11 9.088c0-.61.449-1.107 1-1.107.551 0 1 .496 1 1.107 0 .02 0 .042-.002.063l-.047-.004a7.643 7.643 0 0 0-.346-.033 7.873 7.873 0 0 0-1.082-.01c-.043.002-.085.006-.128.01-.116.009-.231.019-.346.033l-.047.004zm-.627 1.61a6.712 6.712 0 0 1 1.62-.197H12c.184 0 .333.165.333.369s-.149.369-.333.369h-.004c-.499 0-.994.06-1.474.18a.301.301 0 0 1-.074.009c-.152 0-.29-.117-.325-.288-.04-.2.073-.397.252-.441zm-1.992.872c.159-.103.363-.045.457.13a.391.391 0 0 1-.117.505c-1.571 1.03-2.716 2.901-3.062 5.004-.03.178-.17.303-.328.303a.278.278 0 0 1-.06-.007c-.18-.036-.301-.228-.268-.429.381-2.31 1.644-4.368 3.378-5.506zM12 21.265c-5.699 0-9.333-1.576-9.333-2.399 0-.141.158-.453.688-.859-.002.021-.001.042-.002.063-.012.202-.02.406-.02.612v.29l.256.069A32.773 32.773 0 0 0 12 20.142c2.83 0 5.66-.37 8.411-1.101l.256-.069v-.29c0-.206-.008-.41-.02-.612-.001-.021 0-.042-.002-.063.53.406.688.718.688.86 0 .822-3.634 2.398-9.333 2.398z" fill="#274588"/>
</svg>
