<svg width="26" height="26" viewBox="0 0 26 26" fill="none" xmlns="http://www.w3.org/2000/svg">
<g clip-path="url(#clip0_7632_114776)">
<path d="M16.25 1.08594H9.75V3.2526H16.25V1.08594ZM11.9167 15.1693H14.0833V8.66927H11.9167V15.1693ZM20.6158 8.00844L22.1542 6.4701C21.6883 5.9176 21.1792 5.3976 20.6267 4.9426L19.0883 6.48094C17.4092 5.1376 15.2967 4.33594 13 4.33594C7.61583 4.33594 3.25 8.70177 3.25 14.0859C3.25 19.4701 7.605 23.8359 13 23.8359C18.395 23.8359 22.75 19.4701 22.75 14.0859C22.75 11.7893 21.9483 9.67677 20.6158 8.00844ZM13 21.6693C8.8075 21.6693 5.41667 18.2784 5.41667 14.0859C5.41667 9.89344 8.8075 6.5026 13 6.5026C17.1925 6.5026 20.5833 9.89344 20.5833 14.0859C20.5833 18.2784 17.1925 21.6693 13 21.6693Z" fill="#274588"/>
</g>
<defs>
<clipPath id="clip0_7632_114776">
<rect width="26" height="26" fill="white"/>
</clipPath>
</defs>
</svg>
