<svg width="39" height="38" viewBox="0 0 39 38" fill="none" xmlns="http://www.w3.org/2000/svg">
<rect x="0.5" width="38" height="38" rx="1" fill="white"/>
<path d="M19.2375 13.5375C20.125 13.5375 21.2375 12.9375 21.9 12.1375C22.5 11.4125 22.9375 10.4 22.9375 9.3875C22.9375 9.25 22.925 9.1125 22.9 9C21.9125 9.0375 20.725 9.6625 20.0125 10.5C19.45 11.1375 18.9375 12.1375 18.9375 13.1625C18.9375 13.3125 18.9625 13.4625 18.975 13.5125C19.0375 13.525 19.1375 13.5375 19.2375 13.5375ZM16.1125 28.6625C17.325 28.6625 17.8625 27.85 19.375 27.85C20.9125 27.85 21.25 28.6375 22.6 28.6375C23.925 28.6375 24.8125 27.4125 25.65 26.2125C26.5875 24.8375 26.975 23.4875 27 23.425C26.9125 23.4 24.375 22.3625 24.375 19.45C24.375 16.925 26.375 15.7875 26.4875 15.7C25.1625 13.8 23.15 13.75 22.6 13.75C21.1125 13.75 19.9 14.65 19.1375 14.65C18.3125 14.65 17.225 13.8 15.9375 13.8C13.4875 13.8 11 15.825 11 19.65C11 22.025 11.925 24.5375 13.0625 26.1625C14.0375 27.5375 14.8875 28.6625 16.1125 28.6625Z" fill="black"/>
</svg>
