<svg width="30" height="29" viewBox="0 0 30 29" fill="none" xmlns="http://www.w3.org/2000/svg">
    <path d="M13.098 1.854c.599-1.843 3.205-1.843 3.804 0l2.14 6.584a2 2 0 0 0 1.901 1.382h6.923c1.937 0 2.743 2.479 1.175 3.618l-5.6 4.069a2 2 0 0 0-.726 2.236l2.139 6.583c.598 1.843-1.51 3.375-3.078 2.236l-5.6-4.069a2 2 0 0 0-2.352 0l-5.6 4.07c-1.567 1.138-3.676-.394-3.078-2.237l2.14-6.583a2 2 0 0 0-.727-2.236l-5.6-4.07C-.61 12.3.197 9.82 2.134 9.82h6.923a2 2 0 0 0 1.902-1.382l2.139-6.584z" fill="#D9D9D9"/>
</svg>
