<svg width="132" height="47" viewBox="0 0 132 47" fill="none" xmlns="http://www.w3.org/2000/svg">
<path d="M0 4C0 1.79086 1.79086 0 4 0H128C130.209 0 132 1.79086 132 4V47H0V4Z" fill="#F5B21B" fill-opacity="0.31"/>
<path d="M131 6.55952H132V8.60714H131V13.7262H132V15.7738H131V20.8929H132V22.9405H131V28.0595H132V30.1071H131V35.2262H132V37.2738H131V42.3929H132V44.4405H131V46H129.519V47H127.534V46H122.571V47H120.587V46H115.624V47H113.639V46H108.677V47H106.692V46H101.729V47H99.7444V46H94.782V47H92.797V46H87.8346V47H85.8496V46H80.8872V47H78.9023V46H73.9399V47H71.9549V46H66.9925V47H65.0075V46H60.0451V47H58.0602V46H53.0977V47H51.1128V46H46.1504V47H44.1654V46H39.203V47H37.218V46H32.2556V47H30.2707V46H25.3083V47H23.3233V46H18.3609V47H16.3759V46H11.4135V47H9.42857V46H4.46617V47H2.4812V46H1V44.4405H0V42.3929H1V37.2738H0V35.2262H1V30.1071H0V28.0595H1V22.9405H0V20.8929H1V15.7738H0V13.7262H1V8.60714H0V6.55952H1V4C1 3.41181 1.16826 2.86598 1.45886 2.40445L0.61264 1.87162C0.932536 1.36357 1.36357 0.932537 1.87162 0.612641L2.40445 1.45886C2.86598 1.16826 3.41181 1 4 1H6.46035V0H8.4286V1H13.3492V0H15.3175V1H20.2381V0H22.2064V1H27.127V0H29.0953V1H34.0159V0H35.9841V1H40.9048V0H42.873V1H47.7937V0H49.7619V1H54.6825V0H56.6508V1H61.5714V0H63.5397V1H68.4603V0H70.4286V1H75.3492V0H77.3175V1H82.2381V0H84.2064V1H89.127V0H91.0952V1H96.0159V0H97.9841V1H102.905V0H104.873V1H109.794V0H111.762V1H116.683V0H118.651V1H123.571V0H125.54V1H128C128.588 1 129.134 1.16826 129.596 1.45886L130.128 0.612642C130.636 0.932538 131.067 1.36357 131.387 1.87162L130.541 2.40445C130.832 2.86598 131 3.41181 131 4V6.55952Z" stroke="#F5B21B" stroke-opacity="0.6" stroke-width="2" stroke-dasharray="5 2"/>
</svg>
